<svg width="25" height="25" viewBox="0 0 25 25" fill="none" xmlns="http://www.w3.org/2000/svg">
<path d="M15.5 0C15.7761 0 16 0.223858 16 0.5V4.5H16.5L16.7061 4.50488C18.8194 4.61211 20.5 6.35996 20.5 8.5V9H24.5C24.7761 9 25 9.22386 25 9.5C25 9.77614 24.7761 10 24.5 10H20.5V12H22.5C22.7761 12 23 12.2239 23 12.5C23 12.7761 22.7761 13 22.5 13H20.5V15H24.5C24.7761 15 25 15.2239 25 15.5C25 15.7761 24.7761 16 24.5 16H20.5V16.5L20.4951 16.7061C20.3879 18.8194 18.64 20.5 16.5 20.5H16V24.5C16 24.7761 15.7761 25 15.5 25C15.2239 25 15 24.7761 15 24.5V20.5H13V22.5C13 22.7761 12.7761 23 12.5 23C12.2239 23 12 22.7761 12 22.5V20.5H10V24.5C10 24.7761 9.77614 25 9.5 25C9.22386 25 9 24.7761 9 24.5V20.5H8.5C6.29086 20.5 4.5 18.7091 4.5 16.5V16H0.5C0.223858 16 0 15.7761 0 15.5C0 15.2239 0.223858 15 0.5 15H4.5V13H2.5C2.22386 13 2 12.7761 2 12.5C2 12.2239 2.22386 12 2.5 12H4.5V10H0.5C0.223858 10 0 9.77614 0 9.5C0 9.22386 0.223858 9 0.5 9H4.5V8.5C4.5 6.29086 6.29086 4.5 8.5 4.5H9V0.5C9 0.223858 9.22386 0 9.5 0C9.77614 0 10 0.223858 10 0.5V4.5H12V2.5C12 2.22386 12.2239 2 12.5 2C12.7761 2 13 2.22386 13 2.5V4.5H15V0.5C15 0.223858 15.2239 0 15.5 0ZM8.5 5.5C6.84315 5.5 5.5 6.84315 5.5 8.5V16.5C5.5 18.1569 6.84315 19.5 8.5 19.5H16.5C18.1569 19.5 19.5 18.1569 19.5 16.5V8.5C19.5 6.84315 18.1569 5.5 16.5 5.5H8.5ZM14.7041 8.51074C15.7128 8.613 16.5 9.46435 16.5 10.5V14.5L16.4893 14.7041C16.387 15.7128 15.5357 16.5 14.5 16.5H10.5C9.39543 16.5 8.5 15.6046 8.5 14.5V10.5C8.5 9.39543 9.39543 8.5 10.5 8.5H14.5L14.7041 8.51074ZM10.5 9.5C9.94772 9.5 9.5 9.94772 9.5 10.5V14.5C9.5 15.0523 9.94772 15.5 10.5 15.5H14.5C15.0523 15.5 15.5 15.0523 15.5 14.5V10.5C15.5 9.94772 15.0523 9.5 14.5 9.5H10.5Z" fill="#80BDBF"/>
</svg>
