<svg width="279" height="405" viewBox="0 0 279 405" fill="none" xmlns="http://www.w3.org/2000/svg">
<path fill-rule="evenodd" clip-rule="evenodd" d="M139.414 5.21637C167.37 4.89696 196.081 -7.51644 220.073 7.11944C249.494 25.0668 272.418 54.776 277.365 89.3698C282.975 128.607 274.409 170.97 247.612 199.702C220.316 228.968 177.809 247.195 139.414 237.277C104.75 228.322 98.8364 182.241 74.9549 155.101C53.6569 130.896 12.4591 121.727 9.26844 89.3698C6.00696 56.2951 33.0121 26.7435 60.5423 8.94218C83.6486 -5.99858 112.056 5.52896 139.414 5.21637Z" fill="#B700FF" fill-opacity="0.1"/>
<path fill-rule="evenodd" clip-rule="evenodd" d="M122.722 231.047C154.843 230.114 185.163 243.123 207.856 262.691C230.514 282.23 248.848 308.575 244.304 335.888C240.08 361.276 211.429 376.621 186.546 390.764C167.487 401.597 145.57 404.859 122.722 404.995C99.6498 405.133 77.2942 402.417 58.0067 391.53C32.8881 377.351 3.36777 361.587 0.291002 335.888C-2.91581 309.103 20.965 286.479 43.1548 267.478C65.2875 248.525 91.5022 231.954 122.722 231.047Z" fill="#B700FF" fill-opacity="0.1"/>
</svg>
