<svg width="298" height="301" viewBox="0 0 298 301" fill="none" xmlns="http://www.w3.org/2000/svg">
<path fill-rule="evenodd" clip-rule="evenodd" d="M181.907 149.698C207.687 148.362 234.897 144.195 255.928 157.277C279.947 172.218 299.123 196.159 297.949 221.881C296.799 247.067 273.046 266.052 250.255 281.534C230.623 294.87 206.686 302.636 181.907 300.708C159.099 298.933 142.863 283.992 124.748 271.768C102.1 256.484 67.0873 246.806 65.0968 221.881C63.0913 196.766 92.6415 179.067 116.183 164.52C135.381 152.656 158.425 150.915 181.907 149.698Z" fill="#B700FF" fill-opacity="0.1"/>
<path fill-rule="evenodd" clip-rule="evenodd" d="M85.5667 4.05288C100.129 6.89963 110.36 17.1064 122.899 25.0483C142.331 37.3555 174.469 39.6462 177.75 62.4368C180.984 84.9033 152.113 97.0066 135.476 112.421C119.916 126.836 106.637 150.151 85.5667 147.84C64.7579 145.559 60.2905 117.399 45.5065 102.557C30.7604 87.7529 3.81786 83.0815 0.497713 62.4368C-2.96609 40.8988 12.1559 19.2435 30.1245 6.91145C45.9933 -3.97951 66.6857 0.361755 85.5667 4.05288Z" fill="#B700FF" fill-opacity="0.1"/>
</svg>
