<svg width="292" height="379" viewBox="0 0 292 379" fill="none" xmlns="http://www.w3.org/2000/svg">
<path fill-rule="evenodd" clip-rule="evenodd" d="M194.484 0.887302C219.366 5.92145 225.618 42.2556 242.988 63.2865C259.405 83.1625 290.503 91.5604 291.938 118.88C293.385 146.406 269.04 165.991 249.206 181.6C233.19 194.204 213.828 193.519 194.484 195.575C171.741 197.991 145.761 211.664 128.578 194.418C111.179 176.956 118.645 145.378 118.065 118.88C117.459 91.2206 110.795 61.6688 125.184 39.4523C141.095 14.8849 168.195 -4.43135 194.484 0.887302Z" fill="#B700FF" fill-opacity="0.1"/>
<path fill-rule="evenodd" clip-rule="evenodd" d="M107.177 226.247C132.995 224.258 158.547 234.449 176.589 250.971C194.379 267.263 207.592 290.578 201.49 312.617C195.94 332.665 167.457 337.16 149.191 349.93C134.773 360.011 125.348 376.287 107.177 378.558C87.0149 381.078 68.1357 372.45 51.3998 362.152C29.7969 348.86 0.597576 335.951 0.00862177 312.617C-0.582148 289.21 29.3198 276.543 48.8419 260.809C66.8368 246.307 82.9677 228.111 107.177 226.247Z" fill="#B700FF" fill-opacity="0.1"/>
</svg>
