<svg width="312" height="377" viewBox="0 0 312 377" fill="none" xmlns="http://www.w3.org/2000/svg">
<path fill-rule="evenodd" clip-rule="evenodd" d="M127.7 0.0133706C161.062 -0.519915 192.387 14.9511 214.283 37.1292C234.8 57.9095 241.72 85.9196 239.649 113.399C237.721 138.977 220.476 159.35 203.502 180.172C181.213 207.515 165.709 247.24 127.7 250.728C88.9638 254.283 58.9238 222.259 34.265 195.705C12.4435 172.206 -1.7573 143.711 0.175543 113.399C2.00993 84.6312 21.1821 60.3167 44.2032 39.8479C67.3616 19.2572 94.8012 0.539263 127.7 0.0133706Z" fill="#B700FF" fill-opacity="0.1"/>
<path fill-rule="evenodd" clip-rule="evenodd" d="M192.279 211.827C212.838 216.126 230.883 223.135 248.412 234.725C272.943 250.945 311.249 261.537 311.989 290.981C312.728 320.37 275.816 333.978 251.315 350.145C233.295 362.035 213.652 367.013 192.279 369.969C165.523 373.67 136.743 384.209 114.337 369.093C89.2664 352.178 76.6372 321.234 75.2003 290.981C73.6965 259.316 80.324 222.79 106.547 205.061C131.251 188.359 163.107 205.727 192.279 211.827Z" fill="#B700FF" fill-opacity="0.1"/>
</svg>
