<svg width="611" height="183" viewBox="0 0 611 183" fill="none" xmlns="http://www.w3.org/2000/svg">
<path d="M136.834 141.367C136.834 141.367 136.834 143.8 136.834 146.801V149.624C136.834 152.625 136.834 155.058 136.834 155.058H0C0 155.058 0.000384644 152.625 0.000384644 149.624V146.801C0.000384644 143.8 0.000210149 141.367 0.00114196 141.367H136.834Z" fill="#755CC2"/>
<path d="M133.135 1.27734C137.319 1.27734 140.047 5.51054 138.19 9.12201L93.8175 95.4199H131.172C134.288 95.4199 136.814 95.4199 136.814 95.4199V103.677C136.814 106.678 136.814 109.269 136.814 109.269L86.7773 109.111L77.4195 127.31C75.2995 131.433 69.1514 131.311 67.2091 127.108L58.8932 109.111H0.308596L0.308596 103.677V1.27734C0.308596 1.27734 2.8345 1.27734 5.95041 1.27734H133.135ZM14.5243 95.4199C14.5243 95.4199 17.0502 95.4199 20.1661 95.4199H52.5668L38.6025 65.1989C37.3356 62.4571 38.6163 59.2456 41.463 58.0258L44.1415 56.8775C46.9884 55.6571 50.3232 56.891 51.5897 59.6327L73.0403 105.346L119.321 14.9682H20.1661C17.0502 14.9682 14.5243 14.9682 14.5243 14.9682V95.4199Z" fill="#755CC2"/>
<path d="M133.928 2.7168H133.929H133.948L133.968 2.71777C135.048 2.74214 136.068 2.82778 136.96 3.02637C137.832 3.22063 138.744 3.55712 139.452 4.20215C140.23 4.91055 140.619 5.85976 140.605 6.9248C140.593 7.90424 140.244 8.91406 139.728 9.91895L95.3545 96.2168L95.3477 96.2305L95.3398 96.2451L78.9424 126.776L78.9414 126.775C76.1557 132.141 68.2025 131.993 65.6426 126.508L51 96.1777L50.9932 96.165L50.9873 96.1514L32.8086 56.7969L31.6719 54.3359H50.8291L51.3115 55.2822L53.1299 58.8496L53.1426 58.875L53.1543 58.9004L73.1191 101.445L124.247 3.64746L124.733 2.7168H133.928Z" fill="#CBD1D3" stroke="#CBD1D3" stroke-width="3.46816"/>
<path d="M166.895 53.1602C164.2 53.1602 162.122 52.3741 160.663 50.8019C159.203 49.2297 158.473 47.3205 158.473 45.0745V41.5369C158.473 39.2909 159.203 37.3818 160.663 35.8095C162.122 34.2373 164.2 33.4512 166.895 33.4512H174.139C176.834 33.4512 178.912 34.2373 180.372 35.8095C181.944 37.3818 182.73 39.2909 182.73 41.5369V45.0745C182.73 47.3205 181.944 49.2297 180.372 50.8019C178.912 52.3741 176.834 53.1602 174.139 53.1602H166.895ZM166.222 148C163.975 148 162.347 147.494 161.336 146.484C160.326 145.473 159.82 143.957 159.82 141.935V73.3747C159.82 71.2409 160.326 69.6687 161.336 68.658C162.347 67.6473 163.975 67.1419 166.222 67.1419H174.981C177.227 67.1419 178.856 67.6473 179.866 68.658C180.877 69.6687 181.382 71.2409 181.382 73.3747V141.935C181.382 143.957 180.877 145.473 179.866 146.484C178.968 147.494 177.339 148 174.981 148H166.222Z" fill="#CBD1D3"/>
<path d="M242.315 150.526C234.679 150.526 227.21 149.516 219.911 147.494C212.611 145.361 206.828 142.721 202.56 139.577V39.684C202.56 37.5502 203.009 35.978 203.908 34.9673C204.918 33.9565 206.547 33.4512 208.793 33.4512H217.384C219.63 33.4512 221.258 33.9565 222.269 34.9673C223.28 35.978 223.785 37.5502 223.785 39.684V72.5324C226.705 69.9495 230.523 67.9842 235.24 66.6365C239.957 65.2889 245.01 64.6151 250.401 64.6151C263.091 64.6151 272.861 68.0965 279.712 75.0592C286.562 82.022 289.988 91.7923 289.988 104.37C289.988 118.969 285.945 130.312 277.859 138.398C269.885 146.484 258.038 150.526 242.315 150.526ZM241.304 135.197C250.626 135.197 257.476 132.726 261.856 127.785C266.348 122.732 268.594 115.095 268.594 104.875C268.594 96.3405 266.797 90.1077 263.203 86.1771C259.722 82.1343 253.826 80.1128 245.516 80.1128C239.788 80.1128 234.735 81.5727 230.355 84.4926C225.975 87.3002 223.785 91.4554 223.785 96.9582V131.154C225.694 132.39 228.277 133.4 231.534 134.186C234.791 134.86 238.048 135.197 241.304 135.197Z" fill="#CBD1D3"/>
<path d="M350.157 150.526C341.397 150.526 333.48 149.066 326.405 146.147C319.33 143.114 313.659 138.51 309.391 132.333C305.236 126.045 303.158 118.239 303.158 108.918C303.158 94.4314 307.033 83.4257 314.782 75.9015C322.531 68.3772 333.536 64.6151 347.799 64.6151C361.949 64.6151 372.618 68.2649 379.805 75.5646C387.105 82.8642 390.754 93.4207 390.754 107.234C390.754 111.164 388.958 113.13 385.364 113.13H323.541C323.541 120.542 326.124 126.269 331.29 130.312C336.456 134.243 343.644 136.208 352.852 136.208C361.724 136.208 369.698 134.186 376.773 130.144C377.559 129.694 378.177 129.47 378.626 129.47C379.412 129.47 380.029 129.975 380.479 130.986L384.522 138.229C384.859 138.903 385.027 139.521 385.027 140.082C385.027 140.868 384.522 141.598 383.511 142.272C378.906 145.08 373.909 147.157 368.518 148.505C363.24 149.853 357.12 150.526 350.157 150.526ZM371.214 100.664C371.214 93.7014 369.248 88.2547 365.318 84.3242C361.5 80.3936 355.716 78.4283 347.967 78.4283C340.106 78.4283 334.042 80.4497 329.774 84.4926C325.619 88.5355 323.541 93.926 323.541 100.664H371.214Z" fill="#CBD1D3"/>
<path d="M438.148 182.027C435.902 182.027 434.274 181.522 433.263 180.511C432.365 179.5 431.916 177.984 431.916 175.963V75.2277C436.183 72.1955 441.854 69.6687 448.929 67.6472C456.117 65.6258 463.304 64.6151 470.491 64.6151C503.059 64.6151 519.343 78.9898 519.343 107.739C519.343 120.991 515.749 131.435 508.562 139.072C501.487 146.708 491.717 150.526 479.251 150.526C467.908 150.526 459.205 147.27 453.141 140.756V175.963C453.141 178.097 452.635 179.613 451.625 180.511C450.726 181.522 449.098 182.027 446.74 182.027H438.148ZM474.197 135.197C482.171 135.197 488.123 132.783 492.054 127.954C495.984 123.125 497.949 116.162 497.949 107.065C497.949 97.2951 495.647 90.3885 491.043 86.3456C486.438 82.1904 479.363 80.1128 469.818 80.1128C462.743 80.1128 457.184 81.1797 453.141 83.3134V116.499C453.141 122.226 455.162 126.774 459.205 130.144C463.248 133.513 468.245 135.197 474.197 135.197Z" fill="#CBD1D3"/>
<path d="M575.741 150.526C560.805 150.526 549.125 146.877 540.702 139.577C532.392 132.165 528.237 121.609 528.237 107.908C528.237 99.3727 530.146 91.8484 533.964 85.3349C537.783 78.8213 543.229 73.7677 550.304 70.1741C557.492 66.4681 565.858 64.6151 575.404 64.6151C582.479 64.6151 588.487 65.2889 593.428 66.6365C598.37 67.9842 602.974 70.1741 607.242 73.2062C608.252 73.88 608.758 74.61 608.758 75.3961C608.758 76.0699 608.477 76.856 607.915 77.7545L603.367 85.6718C602.693 86.7948 602.076 87.3563 601.514 87.3563C600.953 87.3563 600.167 87.0194 599.156 86.3456C595.674 84.2119 592.193 82.6396 588.712 81.6289C585.343 80.5059 581.3 79.9444 576.583 79.9444C568.16 79.9444 561.534 82.4712 556.705 87.5248C551.876 92.4661 549.462 99.2604 549.462 107.908C549.462 117.004 551.876 123.855 556.705 128.459C561.534 132.951 568.61 135.197 577.931 135.197C582.647 135.197 586.746 134.636 590.228 133.513C593.709 132.39 597.078 130.761 600.335 128.627C601.233 128.066 601.963 127.785 602.525 127.785C603.199 127.785 603.872 128.347 604.546 129.47L609.431 137.724C609.881 138.285 610.105 138.903 610.105 139.577C610.105 140.363 609.544 141.149 608.421 141.935C603.929 144.855 599.1 146.989 593.934 148.337C588.768 149.796 582.704 150.526 575.741 150.526Z" fill="#CBD1D3"/>
</svg>
