<svg width="1235" height="479" viewBox="0 0 1235 479" fill="none" xmlns="http://www.w3.org/2000/svg">
<path d="M272.902 371.689C272.902 371.689 272.902 376.542 272.902 382.526V388.158C272.902 394.143 272.902 398.994 272.902 398.994H0C0 398.994 0.000767134 394.143 0.000767134 388.158V382.526C0.000767134 376.542 0.000419121 371.689 0.00227752 371.689H272.902Z" fill="#755CC2"/>
<path d="M265.526 92.2949C273.871 92.2949 279.312 100.738 275.608 107.94L187.111 280.053H261.611C267.825 280.053 272.863 280.053 272.863 280.053V296.521C272.863 302.506 272.863 307.674 272.863 307.674L173.07 307.357L154.407 343.655C150.179 351.877 137.917 351.634 134.044 343.252L117.458 307.357H0.617192L0.617192 296.521V92.2949C0.617192 92.2949 5.65485 92.2949 11.8692 92.2949H265.526ZM28.9689 280.053C28.9689 280.053 34.0066 280.053 40.221 280.053H104.841L76.9904 219.78C74.4637 214.312 77.0181 207.907 82.6956 205.474L88.0374 203.184C93.7153 200.75 100.366 203.211 102.892 208.679L145.673 299.849L237.976 119.6H40.221C34.0066 119.6 28.9689 119.6 28.9689 119.6V280.053Z" fill="#755CC2"/>
<path d="M267.186 95.1631C269.339 95.2117 271.375 95.3822 273.154 95.7783C274.894 96.1657 276.711 96.8378 278.124 98.124C279.676 99.5368 280.453 101.43 280.426 103.554C280.401 105.507 279.704 107.522 278.673 109.526L190.176 281.639L190.162 281.666L190.147 281.693L157.443 342.587L157.442 342.586C151.886 353.286 136.023 352.989 130.918 342.05V342.051L101.716 281.561L101.69 281.508L65.4346 203.02L63.167 198.111H101.374L102.336 199.999L105.963 207.113L105.988 207.163L106.013 207.215L145.829 292.068L247.799 97.0186L248.77 95.1631H267.186Z" fill="#CBD1D3" stroke="#CBD1D3" stroke-width="6.9169"/>
<path d="M332.854 196.852C327.479 196.852 323.335 195.285 320.424 192.149C317.512 189.013 316.056 185.206 316.056 180.726V173.671C316.056 169.191 317.512 165.384 320.424 162.248C323.335 159.113 327.479 157.545 332.854 157.545H347.301C352.676 157.545 356.82 159.113 359.732 162.248C362.867 165.384 364.435 169.191 364.435 173.671V180.726C364.435 185.206 362.867 189.013 359.732 192.149C356.82 195.285 352.676 196.852 347.301 196.852H332.854ZM331.511 386C327.031 386 323.783 384.992 321.768 382.976C319.752 380.961 318.744 377.937 318.744 373.905V237.168C318.744 232.913 319.752 229.777 321.768 227.761C323.783 225.745 327.031 224.737 331.511 224.737H348.981C353.46 224.737 356.708 225.745 358.724 227.761C360.739 229.777 361.747 232.913 361.747 237.168V373.905C361.747 377.937 360.739 380.961 358.724 382.976C356.932 384.992 353.684 386 348.981 386H331.511ZM483.272 391.039C468.041 391.039 453.147 389.024 438.588 384.992C424.03 380.737 412.495 375.473 403.984 369.202V169.975C403.984 165.72 404.88 162.584 406.672 160.568C408.688 158.553 411.935 157.545 416.415 157.545H433.549C438.029 157.545 441.276 158.553 443.292 160.568C445.308 162.584 446.316 165.72 446.316 169.975V235.488C452.139 230.337 459.754 226.417 469.161 223.73C478.568 221.042 488.647 219.698 499.398 219.698C524.707 219.698 544.193 226.641 557.856 240.528C571.518 254.414 578.349 273.9 578.349 298.985C578.349 328.102 570.286 350.724 554.16 366.85C538.258 382.976 514.628 391.039 483.272 391.039ZM481.256 360.467C499.846 360.467 513.508 355.539 522.243 345.684C531.202 335.605 535.682 320.375 535.682 299.993C535.682 282.971 532.098 270.54 524.931 262.701C517.988 254.638 506.229 250.607 489.655 250.607C478.232 250.607 468.153 253.518 459.418 259.342C450.683 264.941 446.316 273.228 446.316 284.203V352.404C450.123 354.867 455.275 356.883 461.77 358.451C468.265 359.795 474.761 360.467 481.256 360.467ZM698.351 391.039C680.881 391.039 665.091 388.128 650.98 382.304C636.87 376.257 625.559 367.074 617.048 354.755C608.761 342.213 604.617 326.646 604.617 308.056C604.617 279.164 612.345 257.214 627.799 242.208C643.253 227.201 665.203 219.698 693.648 219.698C721.869 219.698 743.146 226.977 757.481 241.536C772.039 256.094 779.319 277.148 779.319 304.697C779.319 312.536 775.735 316.456 768.568 316.456H645.269C645.269 331.238 650.421 342.661 660.723 350.724C671.026 358.563 685.361 362.483 703.727 362.483C721.421 362.483 737.323 358.451 751.434 350.388C753.001 349.492 754.233 349.044 755.129 349.044C756.697 349.044 757.929 350.052 758.825 352.068L766.888 366.514C767.56 367.858 767.896 369.09 767.896 370.21C767.896 371.778 766.888 373.233 764.872 374.577C755.689 380.177 745.722 384.32 734.971 387.008C724.445 389.696 712.238 391.039 698.351 391.039ZM740.347 291.594C740.347 277.708 736.427 266.845 728.588 259.006C720.973 251.167 709.438 247.247 693.984 247.247C678.305 247.247 666.211 251.279 657.7 259.342C649.413 267.405 645.269 278.156 645.269 291.594H740.347ZM873.841 453.865C869.362 453.865 866.114 452.857 864.098 450.841C862.306 448.825 861.41 445.802 861.41 441.77V240.864C869.921 234.816 881.232 229.777 895.343 225.745C909.677 221.714 924.012 219.698 938.346 219.698C1003.3 219.698 1035.78 248.367 1035.78 305.705C1035.78 332.134 1028.61 352.964 1014.27 368.194C1000.16 383.424 980.678 391.039 955.816 391.039C933.195 391.039 915.837 384.544 903.742 371.554V441.77C903.742 446.026 902.734 449.049 900.718 450.841C898.926 452.857 895.679 453.865 890.975 453.865H873.841ZM945.737 360.467C961.64 360.467 973.51 355.651 981.349 346.02C989.189 336.389 993.108 322.503 993.108 304.361C993.108 284.875 988.517 271.1 979.334 263.037C970.151 254.75 956.04 250.607 937.002 250.607C922.892 250.607 911.805 252.734 903.742 256.99V323.175C903.742 334.598 907.773 343.669 915.837 350.388C923.9 357.107 933.867 360.467 945.737 360.467ZM1148.26 391.039C1118.47 391.039 1095.17 383.76 1078.37 369.202C1061.8 354.419 1053.51 333.366 1053.51 306.041C1053.51 289.018 1057.32 274.012 1064.94 261.022C1072.55 248.031 1083.41 237.952 1097.52 230.785C1111.86 223.394 1128.55 219.698 1147.58 219.698C1161.69 219.698 1173.68 221.042 1183.53 223.73C1193.39 226.417 1202.57 230.785 1211.08 236.832C1213.1 238.176 1214.1 239.632 1214.1 241.2C1214.1 242.544 1213.54 244.111 1212.42 245.903L1203.35 261.693C1202.01 263.933 1200.78 265.053 1199.66 265.053C1198.54 265.053 1196.97 264.381 1194.95 263.037C1188.01 258.782 1181.07 255.646 1174.12 253.63C1167.41 251.391 1159.34 250.271 1149.93 250.271C1133.14 250.271 1119.92 255.31 1110.29 265.389C1100.66 275.244 1095.84 288.795 1095.84 306.041C1095.84 324.183 1100.66 337.845 1110.29 347.028C1119.92 355.987 1134.03 360.467 1152.62 360.467C1162.03 360.467 1170.2 359.347 1177.15 357.107C1184.09 354.867 1190.81 351.62 1197.31 347.364C1199.1 346.244 1200.55 345.684 1201.67 345.684C1203.02 345.684 1204.36 346.804 1205.7 349.044L1215.45 365.506C1216.34 366.626 1216.79 367.858 1216.79 369.202C1216.79 370.77 1215.67 372.337 1213.43 373.905C1204.47 379.729 1194.84 383.984 1184.54 386.672C1174.24 389.584 1162.14 391.039 1148.26 391.039Z" fill="#CBD1D3"/>
</svg>
