<svg width="24" height="23" viewBox="0 0 24 23" fill="none" xmlns="http://www.w3.org/2000/svg">
<path d="M20.2061 0.00488281C22.3194 0.112115 24 1.85996 24 4V19L23.9951 19.2061C23.8913 21.2512 22.2512 22.8913 20.2061 22.9951L20 23H5C2.85996 23 1.11211 21.3194 1.00488 19.2061L1 19V8.5H0.700195C0.313596 8.5 0 8.1864 0 7.7998V4.7002C0 4.3136 0.313596 4 0.700195 4H1C1 1.79086 2.79086 4.0266e-08 5 0H20L20.2061 0.00488281ZM5 1C3.3949 1 2.08421 2.26056 2.00391 3.8457L2 4V19C2 20.6569 3.34315 22 5 22H20C21.6569 22 23 20.6569 23 19V4C23 2.3949 21.7394 1.08421 20.1543 1.00391L20 1H5ZM18 17.5C18.2761 17.5 18.5 17.7239 18.5 18C18.5 18.2761 18.2761 18.5 18 18.5H5C4.72386 18.5 4.5 18.2761 4.5 18C4.5 17.7239 4.72386 17.5 5 17.5H18ZM15.5 4C15.7761 4 16 4.22386 16 4.5V13.5C16 13.7761 15.7761 14 15.5 14C15.2239 14 15 13.7761 15 13.5V4.5C15 4.22386 15.2239 4 15.5 4ZM18.5 4C18.7761 4 19 4.22386 19 4.5V13.5C19 13.7761 18.7761 14 18.5 14C18.2239 14 18 13.7761 18 13.5V4.5C18 4.22386 18.2239 4 18.5 4ZM11 4C11.5523 4 12 4.44772 12 5V10C12 10.5177 11.6067 10.9438 11.1025 10.9951L11 11H6L5.89746 10.9951C5.42703 10.9472 5.05278 10.573 5.00488 10.1025L5 10V5C5 4.44772 5.44772 4 6 4H11ZM6 10H11V5H6V10Z" fill="#80BDBF"/>
</svg>
