<svg width="419" height="419" viewBox="0 0 419 419" fill="none" xmlns="http://www.w3.org/2000/svg">
<path fill-rule="evenodd" clip-rule="evenodd" d="M285.723 152.356C285.723 172.56 277.697 191.937 263.41 206.224C249.123 220.511 229.746 228.537 209.541 228.537C189.337 228.537 169.959 220.511 155.673 206.224C141.386 191.937 133.359 172.56 133.359 152.356C133.359 132.151 141.386 112.774 155.673 98.487C169.959 84.2001 189.337 76.1738 209.541 76.1738C229.746 76.1738 249.123 84.2001 263.41 98.487C277.697 112.774 285.723 132.151 285.723 152.356ZM247.632 152.356C247.632 162.458 243.619 172.147 236.476 179.29C229.332 186.433 219.644 190.447 209.541 190.447C199.439 190.447 189.75 186.433 182.607 179.29C175.463 172.147 171.45 162.458 171.45 152.356C171.45 142.253 175.463 132.565 182.607 125.421C189.75 118.278 199.439 114.265 209.541 114.265C219.644 114.265 229.332 118.278 236.476 125.421C243.619 132.565 247.632 142.253 247.632 152.356Z" fill="#755CC2"/>
<path fill-rule="evenodd" clip-rule="evenodd" d="M209.5 0C93.7989 0 0 93.7989 0 209.5C0 325.201 93.7989 419 209.5 419C325.201 419 419 325.201 419 209.5C419 93.7989 325.201 0 209.5 0ZM38.0909 209.5C38.0909 249.305 51.6703 285.948 74.4296 315.05C90.4172 294.064 111.038 277.057 134.683 265.355C158.327 253.653 184.356 247.574 210.738 247.591C236.78 247.561 262.486 253.478 285.894 264.891C309.302 276.305 329.794 292.913 345.808 313.45C362.31 291.807 373.421 266.545 378.222 239.755C383.022 212.966 381.374 185.418 373.415 159.391C365.455 133.365 351.412 109.607 332.448 90.0857C313.483 70.5639 290.143 55.8386 264.358 47.1281C238.573 38.4177 211.085 35.9725 184.167 39.9949C157.249 44.0174 131.676 54.3917 109.564 70.2597C87.4519 86.1276 69.4361 107.033 57.0074 131.246C44.5787 155.459 38.0943 182.283 38.0909 209.5ZM209.5 380.909C170.15 380.973 131.988 367.436 101.474 342.59C113.755 325.003 130.103 310.645 149.127 300.736C168.152 290.828 189.288 285.663 210.738 285.682C231.92 285.663 252.8 290.699 271.645 300.372C290.49 310.044 306.754 324.074 319.088 341.295C288.338 366.949 249.546 380.972 209.5 380.909Z" fill="#755CC2"/>
</svg>
