<svg width="36" height="23" viewBox="0 0 36 23" fill="none" xmlns="http://www.w3.org/2000/svg">
<path d="M3.05566 0C3.52272 0 3.90137 0.378649 3.90137 0.845703V3.94727C4.24574 3.55458 4.75017 3.30578 5.31348 3.30566H33.1602L33.3525 3.31543C34.2998 3.41187 35.0389 4.21187 35.0391 5.18457V17.7734C35.0391 18.7463 34.3 19.5471 33.3525 19.6436L33.1602 19.6533H25.252V21.1436C25.252 21.6105 24.8731 21.989 24.4062 21.9893H14.7129C14.2458 21.9893 13.8672 21.6106 13.8672 21.1436V19.6533H12.2578V21.3936C12.2578 21.8606 11.8791 22.2393 11.4121 22.2393H9.57617C9.10914 22.2393 8.73051 21.8606 8.73047 21.3936V19.6533H5.31348L5.12207 19.6436C4.63617 19.5943 4.20625 19.3587 3.90137 19.0107V22.2012C3.90136 22.4606 3.69111 22.6709 3.43164 22.6709C3.17219 22.6709 2.96192 22.4606 2.96191 22.2012V14.7207H1.40723C0.940245 14.7207 0.561644 14.342 0.561523 13.875V9.60645C0.561688 9.13953 0.940272 8.76074 1.40723 8.76074H2.96191V0.939453H0.469727C0.210251 0.939453 0 0.729202 0 0.469727C0 0.210251 0.210251 0 0.469727 0H3.05566ZM9.66992 21.2998H11.3184V19.6533H9.66992V21.2998ZM14.8066 21.0498H19.249L19.2529 21.043L19.2646 21.0498H24.3115V19.6533H14.8066V21.0498ZM5.31348 4.43359C4.89862 4.4338 4.56271 4.76971 4.5625 5.18457V17.7734C4.5625 18.1885 4.89849 18.5252 5.31348 18.5254H33.1602C33.5752 18.5253 33.9121 18.1885 33.9121 17.7734V5.18457C33.9119 4.76966 33.5751 4.43372 33.1602 4.43359H5.31348ZM25.3223 6.5752C27.8513 6.5752 29.9021 8.62529 29.9023 11.1543L29.8965 11.3906C29.7737 13.8102 27.7723 15.7344 25.3223 15.7344L25.0869 15.7285C22.6673 15.6058 20.7432 13.6044 20.7432 11.1543C20.7434 8.62543 22.7934 6.57541 25.3223 6.5752ZM25.3223 7.32715C23.2086 7.32736 21.4953 9.04059 21.4951 11.1543C21.4951 13.2682 23.2084 14.9822 25.3223 14.9824C27.4363 14.9824 29.1504 13.2683 29.1504 11.1543C29.1502 9.04045 27.4362 7.32715 25.3223 7.32715ZM1.50098 13.7812H2.96191V9.70117H1.50098V13.7812ZM25.4941 9.44141C26.3633 9.52954 27.042 10.2638 27.042 11.1562L27.0332 11.332C26.9451 12.2012 26.2107 12.8798 25.3184 12.8799L25.1416 12.8711C24.3305 12.7886 23.6858 12.1432 23.6035 11.332L23.5947 11.1562C23.5947 10.2044 24.3665 9.43262 25.3184 9.43262L25.4941 9.44141ZM25.3184 10.1846C24.7817 10.1846 24.3467 10.6196 24.3467 11.1562C24.3468 11.6929 24.7817 12.1279 25.3184 12.1279C25.8549 12.1278 26.29 11.6928 26.29 11.1562C26.29 10.6196 25.855 10.1847 25.3184 10.1846Z" fill="#80BDBF"/>
</svg>
