<svg width="75" height="118" viewBox="0 0 75 118" fill="none" xmlns="http://www.w3.org/2000/svg">
<path d="M56.3928 0.197926C54.7017 0.60445 53.9013 1.22079 51.6163 3.84352C47.8983 8.10545 43.6768 12.9575 41.8437 15.0688C40.8109 16.2621 38.5388 18.8586 36.796 20.8388C31.3481 27.0284 31.1803 27.2776 31.1803 29.2315C31.1803 30.1757 31.2319 30.5822 31.4127 30.9101L31.6451 31.3297L29.8893 33.5197C28.9211 34.713 28.0174 35.9326 27.8754 36.208C27.3591 37.2309 27.4365 38.4767 28.0949 39.4864L28.4047 39.9847L24.8804 45.1908C22.9311 48.0627 21.2399 50.6068 21.1237 50.8428C20.3491 52.3771 21.0592 54.436 22.6341 55.249C23.2667 55.5769 23.5378 55.6424 24.2478 55.6293C25.3839 55.6162 26.1714 55.249 27.8884 53.9508C29.7861 52.5083 35.9311 47.9316 36.1247 47.8005C36.2151 47.748 36.4474 47.8267 36.6798 47.9972C37.1187 48.3119 38.087 48.6397 38.6034 48.6397C39.4554 48.6397 40.2171 48.2463 41.4435 47.1841C42.1148 46.6071 43.083 45.7023 43.5994 45.1908L44.5289 44.2598L45.2002 44.5876C45.7682 44.8499 46.078 44.9023 47.0463 44.9023C49.0214 44.9023 49.3054 44.7188 53.514 40.5224C54.8695 39.1717 59.8914 34.2016 64.6937 29.4545C69.4961 24.7204 73.5756 20.6028 73.7692 20.3274C74.4534 19.3307 74.7503 18.3866 74.7503 17.167C74.7503 14.6623 73.8596 12.8133 71.0066 9.4955C68.799 6.91211 64.6292 3.04359 62.4604 1.53552C60.4206 0.145473 58.4197 -0.300392 56.3928 0.197926ZM59.7106 3.39766C62.1376 4.591 67.5984 9.6922 70.1803 13.1673C71.4584 14.8983 71.7682 15.554 71.8715 16.6556C72.0135 18.1767 72.517 17.6129 60.2141 29.7692C54.1207 35.8015 48.8536 40.9683 48.505 41.2699C47.369 42.2796 46.5557 42.2403 45.3422 41.1387C43.3412 39.3159 34.2141 29.979 34.1366 29.6774C33.9042 28.7463 34.2399 28.1956 36.6927 25.4155C43.0314 18.2423 46.233 14.5836 49.1763 11.2003C55.9281 3.42388 55.9668 3.38454 57.1674 3.0567C57.9678 2.82065 58.7682 2.93867 59.7106 3.39766ZM38.087 38.0833C40.4236 40.4568 42.3472 42.4108 42.3472 42.4239C42.3472 42.4501 39.2101 45.2826 38.8357 45.5974C38.6292 45.781 38.2548 45.44 34.5368 41.7551C32.2905 39.5389 30.4832 37.6636 30.4961 37.6112C30.5736 37.3751 33.6331 33.7033 33.7235 33.7295C33.7751 33.7426 35.7374 35.6966 38.087 38.0833ZM34.0463 45.6367C34.0333 45.6892 32.2518 47.0399 30.083 48.6397C27.9142 50.2527 25.797 51.8264 25.371 52.1411C24.5577 52.7443 24.0929 52.8361 23.8476 52.4296C23.7444 52.2591 24.1058 51.6165 25.6937 49.2823C26.791 47.6693 28.3402 45.3482 29.1664 44.1286L30.651 41.8993L32.3551 43.7352C33.3104 44.7319 34.0592 45.5974 34.0463 45.6367Z" fill="#1FAC88"/>
<path d="M10.4602 56.7821C10.1375 56.8476 9.40165 57.1361 8.83362 57.4246C6.60026 58.5393 5.18019 60.9391 5.16729 63.6143V64.3487H3.20502C1.13948 64.3487 0.752189 64.4273 0.326171 64.8994C-0.0740283 65.3453 -0.0352994 66.3682 0.403628 66.814C0.855466 67.2599 1.48804 67.3779 3.52776 67.391H5.16729V69.345V71.312L2.97265 71.3513C0.816737 71.3907 0.778008 71.3907 0.455267 71.7316C0.0163392 72.1644 -0.0869379 72.8594 0.197074 73.4626C0.545634 74.2232 0.971653 74.3412 3.21793 74.3412H5.16729L5.18019 74.8265C5.18019 75.1018 5.1931 76.0067 5.1931 76.8328V78.3409L2.99847 78.4065C0.894195 78.472 0.778008 78.4852 0.468177 78.7868C-0.164396 79.39 -0.0869379 80.5309 0.636002 81.003C0.894195 81.1866 1.39767 81.239 3.06301 81.2915L5.18019 81.357L5.1931 83.3241L5.20601 85.2911L2.97265 85.3567L0.752189 85.4223L0.377809 85.855C-0.254763 86.5763 -0.0740283 87.5729 0.778008 88.0057C1.15239 88.2024 1.57841 88.2417 3.20502 88.2417H5.16729V90.2743V92.3069H3.11465C1.20403 92.3069 1.04911 92.3201 0.636002 92.6086C-0.112757 93.12 -0.190215 94.1297 0.442357 94.8903L0.752189 95.2575L2.95974 95.2969L5.16729 95.3362V97.3688V99.3883H3.03719H0.907104L0.493996 99.7686C0.119616 100.11 0.0679778 100.241 0.0679778 100.805C0.0679778 101.513 0.326171 101.945 0.894195 102.155C1.06202 102.221 2.01733 102.286 3.02429 102.286C4.01833 102.286 4.90909 102.326 4.98655 102.378C5.07692 102.431 5.16729 103.139 5.20601 104.109C5.24474 105.014 5.37384 106.024 5.47712 106.352C6.1226 108.45 7.64594 110.076 9.64693 110.837C10.2795 111.073 10.7572 111.125 12.8485 111.191L15.3014 111.256L15.3272 113.695C15.3401 116.397 15.4434 116.79 16.1405 117.157C16.9021 117.564 17.6251 117.328 18.0253 116.541C18.1931 116.213 18.2318 115.649 18.2577 113.695L18.2706 111.256L20.0521 111.217L21.8207 111.177V113.682C21.8207 116.357 21.8853 116.725 22.492 117.144C22.9826 117.498 23.8217 117.42 24.2994 116.974L24.7254 116.593L24.7899 113.918L24.8545 111.256H26.5973H28.3401L28.4046 113.813C28.4434 115.518 28.5208 116.462 28.637 116.659C29.0759 117.446 30.07 117.59 30.7542 116.974L31.1802 116.593L31.2448 113.918L31.3093 111.256H33.0521H34.7949L34.8595 113.918L34.924 116.593L35.35 116.974C35.9439 117.511 36.7443 117.511 37.3381 116.974L37.7641 116.593L37.8287 113.918L37.8932 111.256L39.6748 111.217L41.4434 111.177V113.682C41.4434 116.357 41.5079 116.725 42.1147 117.144C42.6827 117.551 43.7026 117.328 44.0898 116.711C44.1673 116.593 44.2448 115.321 44.2835 113.879L44.348 111.256H46.0908H47.8336L47.8982 113.918L47.9627 116.593L48.3888 116.974C49.1117 117.629 50.2348 117.433 50.6867 116.554C50.8287 116.266 50.8674 115.61 50.8674 113.682V111.177L52.6489 111.217L54.4176 111.256L54.4821 113.813C54.5467 116.58 54.6241 116.882 55.3341 117.197C55.9667 117.498 56.8962 117.262 57.1415 116.738C57.206 116.607 57.2835 115.321 57.3222 113.879L57.3868 111.256L59.7751 111.177C61.7761 111.125 62.2666 111.059 62.8346 110.837C64.6162 110.115 65.8039 109.027 66.6043 107.361C67.0432 106.457 67.1594 106.063 67.2626 105.027C67.3272 104.345 67.3917 103.44 67.3917 103.021V102.273H69.5218C70.8903 102.273 71.7552 102.221 71.9747 102.116C72.7105 101.775 72.93 100.49 72.3749 99.8211L72.065 99.4539L69.7284 99.3883C68.4374 99.349 67.3917 99.2834 67.3917 99.2178C67.3917 99.1654 67.3917 98.2737 67.3917 97.2246V95.3231H69.5348C71.3034 95.3231 71.7423 95.2837 72.0392 95.1001C72.788 94.6543 72.93 93.5003 72.3103 92.8053L71.9359 92.3725L69.5993 92.3332L67.2626 92.2938V90.2743V88.2548L69.5993 88.2155L71.9359 88.1761L72.3103 87.7434C72.8396 87.1402 72.8396 86.2878 72.3103 85.737L71.9359 85.3567H69.5993H67.2626V83.3372V81.3046L69.5993 81.2653L71.9359 81.2259L72.3103 80.7932C72.9429 80.0719 72.7751 78.9835 71.9489 78.5507C71.781 78.4589 70.8386 78.4065 69.4702 78.4065H67.2626V76.3739V74.3412H69.3282C71.6648 74.3412 72.1554 74.2232 72.4781 73.5675C72.8783 72.7938 72.6331 71.7841 71.9747 71.4825C71.7552 71.3776 70.8903 71.3251 69.5218 71.3251H67.3917V69.3712V67.4172L69.5606 67.3648C71.355 67.3386 71.7681 67.2861 72.0521 67.0894C72.4652 66.814 72.6847 66.3419 72.6847 65.7387C72.6847 64.5978 72.2329 64.4011 69.496 64.3618L67.4176 64.3355L67.3272 63.2864C67.0948 60.5981 65.8168 58.5918 63.6221 57.5033C61.8277 56.5985 62.5119 56.6247 45.3679 56.6641L29.928 56.7034L29.489 57.1886C28.8436 57.9099 28.8952 58.8278 29.6181 59.4179C29.8763 59.6277 30.8833 59.654 45.1484 59.654C55.9409 59.654 60.6142 59.6933 61.0918 59.7982C62.4603 60.0998 63.4027 60.7949 64.0094 61.9489L64.358 62.6045V83.9142C64.358 108.24 64.4742 105.919 63.1832 107.125C61.931 108.279 64.3709 108.188 36.0213 108.148L10.9121 108.109L10.2795 107.794C9.53074 107.414 8.88526 106.784 8.49797 106.037L8.20105 105.486L8.16232 84.1109C8.12359 60.0474 8.03323 62.1324 9.13054 60.9522C9.44038 60.6113 9.99549 60.2047 10.3699 60.0343C11.0283 59.7195 11.1315 59.7195 16.0888 59.654C20.917 59.5884 21.1623 59.5753 21.4334 59.3261C22.2209 58.618 22.1564 57.5164 21.3172 56.9394L20.8783 56.6378L15.9597 56.6509C13.2487 56.6641 10.783 56.7165 10.4602 56.7821Z" fill="#1FAC88"/>
<path d="M26.8717 63.0099C25.4646 63.7312 24.9869 64.9376 24.9869 67.7177C24.9998 69.3963 25.116 70.3011 25.4904 71.324C25.542 71.4551 25.3097 71.6911 24.7804 72.0452C23.5023 72.8976 22.4179 74.1959 21.695 75.717C20.7526 77.6972 20.5589 79.3889 21.0495 81.3428C21.7982 84.3196 24.0187 86.3915 27.8916 87.716C31.4159 88.9094 34.5788 89.1454 37.406 88.4373C38.9422 88.0439 42.1051 86.1948 44.2094 84.4638C44.687 84.0573 45.4745 83.2836 45.9393 82.7459C46.404 82.1952 46.8429 81.7493 46.9204 81.7493C47.127 81.7493 47.3593 82.6279 47.3722 83.4541C47.3851 85.29 46.0296 86.7456 43.3702 87.7291C41.9889 88.2406 41.8727 88.3061 41.6404 88.7651C41.3176 89.4077 41.3951 89.9191 41.8856 90.4174C42.2729 90.8108 42.402 90.8633 43.0217 90.8633C44.8419 90.8633 47.695 89.1979 49.0634 87.3357C50.0445 85.9981 50.2898 85.2113 50.2898 83.3229C50.2898 81.828 50.264 81.6969 49.8896 80.8969C49.6701 80.4248 49.2441 79.7298 48.9343 79.3364L48.3921 78.6283L48.405 77.2907C48.4437 74.8778 47.7853 73.0943 46.262 71.4682C45.8102 70.9961 45.4487 70.5896 45.4487 70.5765C45.4487 70.5503 46.9075 70.5371 48.6761 70.5371H51.9164L52.2392 70.865L52.549 71.1797L52.5232 84.3589C52.4845 96.8169 52.4715 97.5513 52.2521 97.7742C52.0326 97.9971 51.1806 98.0102 35.3921 98.0102C19.2163 98.0102 18.7516 97.9971 18.4805 97.7611L18.2094 97.5119V84.2278V70.9437L18.4934 70.747C18.7257 70.5765 19.1647 70.5371 20.5331 70.5371C22.0306 70.5371 22.3275 70.4978 22.689 70.2749C23.5281 69.7503 23.5152 68.3996 22.6503 67.8226C22.3275 67.6128 22.0177 67.5866 20.1458 67.5997C18.2997 67.5997 17.9383 67.639 17.4348 67.8751C16.6086 68.2423 16.0534 68.7668 15.6532 69.5405L15.3047 70.2093V84.2409V98.2725L15.6791 99.0462C16.0664 99.833 16.7635 100.476 17.6026 100.79C18.2352 101.026 52.4328 101.013 53.0912 100.777C53.8141 100.515 54.5242 99.8724 54.9502 99.0987L55.3246 98.4036L55.3633 84.5819C55.3891 72.6091 55.3633 70.6552 55.1955 70.0782C54.9502 69.1864 54.1756 68.3078 53.2978 67.9013L52.6135 67.5866L45.4487 67.5735C39.265 67.5603 38.1289 67.5341 37.122 67.3374C34.398 66.8129 32.8231 66.1047 31.7774 64.9507C31.3901 64.5311 30.8737 63.941 30.6155 63.6656C29.6731 62.6165 28.1756 62.3542 26.8717 63.0099ZM29.2987 66.6555C31.1061 68.8979 33.3136 69.8552 38.4775 70.6552C40.6205 70.9961 41.0465 71.101 42.0276 71.6256C43.0475 72.1763 44.5321 73.6713 44.971 74.6024C46.0813 76.9235 45.552 78.9954 43.2541 81.2903C41.3176 83.2443 38.5033 85.0408 36.6056 85.5523C33.9978 86.2473 30.0991 85.6965 27.1557 84.2278C25.7486 83.5197 24.7287 82.5624 24.1865 81.4477C23.8638 80.7789 23.8251 80.556 23.8251 79.3889C23.8251 78.1824 23.8638 77.9988 24.2382 77.1858C24.6771 76.2416 25.6711 75.0745 26.5619 74.4581L27.1041 74.0778L27.7883 74.7729C28.6016 75.599 29.6731 76.3596 30.977 77.0284C31.7645 77.4218 32.0356 77.5005 32.4487 77.448C33.12 77.3562 33.5718 76.8973 33.6493 76.2285C33.7526 75.4285 33.3911 74.9827 32.1259 74.327C31.3385 73.9205 30.7963 73.5008 30.0862 72.7796C28.4983 71.1535 27.982 69.829 27.969 67.3768C27.9561 66.1703 28.0852 65.6851 28.4209 65.6851C28.4725 65.6851 28.8727 66.1178 29.2987 66.6555Z" fill="#1FAC88"/>
</svg>
