<svg width="118" height="90" viewBox="0 0 118 90" fill="none" xmlns="http://www.w3.org/2000/svg">
<path d="M4.93285 0.985733C2.64532 1.70889 0.948122 3.62746 0.579166 5.88547C0.372551 7.08089 0.387309 65.125 0.579166 66.5271C0.948122 69.0655 2.73387 71.1759 5.16898 71.9286C6.02496 72.1942 6.70384 72.209 18.0086 72.209C25.1664 72.209 29.9481 72.268 29.9481 72.3418C29.9481 72.4156 29.6824 74.2456 29.3577 76.4003C29.0331 78.555 28.7674 80.3851 28.7674 80.4589C28.7674 80.5474 27.6163 80.6212 25.9338 80.6507C23.3216 80.695 23.0264 80.7245 22.3181 81.0492C21.4326 81.4329 20.6061 82.2741 20.1929 83.1891C19.9715 83.6909 19.9125 84.1632 19.9125 85.9046C19.9125 88.2807 20.0305 88.7087 20.8422 89.1367C21.285 89.3876 22.5247 89.4023 41.5333 89.4023C60.2762 89.4023 61.7816 89.3876 62.2096 89.1515C62.977 88.7382 63.1541 88.1331 63.1541 86.0227C63.1541 83.6466 62.9032 82.8792 61.7668 81.8314C60.6009 80.7688 59.9811 80.6212 56.8671 80.6212C54.3287 80.6212 54.2992 80.6212 54.2254 80.2818C54.1221 79.8242 52.9709 72.5632 52.9709 72.3713C52.9709 72.2533 56.6162 72.209 64.9103 72.209C76.2151 72.209 76.894 72.1942 77.75 71.9286C80.1113 71.1907 81.8823 69.2131 82.3251 66.837C82.4284 66.2909 82.4874 63.5312 82.4874 59.4726C82.4874 53.3775 82.5022 53.0085 82.753 53.0823C84.6126 53.6579 88.3464 54.1449 89.5861 53.9826L90.265 53.8793L90.3831 54.6024C90.7815 57.2589 92.3311 60.4024 94.8105 63.5754C95.5189 64.4609 96.183 65.3907 96.3159 65.6416C96.4487 65.8777 97.1423 66.9993 97.8655 68.1062C98.5886 69.2278 99.3118 70.438 99.4594 70.7922C99.6217 71.1464 100.315 73.5963 100.994 76.2528C101.673 78.8945 102.337 81.2263 102.47 81.4329C102.78 81.8904 103.577 82.1118 104.271 81.9347C104.802 81.7871 105.363 81.0935 105.363 80.5917C105.363 80.2375 103.075 71.5301 102.618 70.1281C102.249 68.9917 101.629 67.8406 100.153 65.5235C98.6624 63.177 98.0721 61.1551 97.8212 57.5245C97.5703 53.894 97.1866 52.1525 95.7698 48.3744C95.2828 47.1052 94.9581 45.9836 94.9138 45.4671C94.8548 44.6849 94.8843 44.5963 95.2976 44.1683C95.8288 43.6518 96.1093 43.6223 96.7734 44.0208C97.3047 44.3454 97.3785 44.4635 99.3266 47.9317C101.85 52.4034 103.813 55.0452 104.846 55.3846C105.555 55.6207 106.366 55.2223 106.735 54.4696C107.104 53.7317 106.957 53.3332 105.909 52.0788C105.082 51.09 104.079 49.6584 103.311 48.4187L102.987 47.8727L103.71 46.9429C104.684 45.7032 105.879 43.7699 106.558 42.3383L107.104 41.1724L108.787 43.4452C111.104 46.5739 111.399 47.0314 111.723 47.9464C112.063 48.9057 112.092 50.4111 111.797 52.6691C111.414 55.5322 110.971 59.7973 110.823 61.9077C110.587 65.553 110.882 66.778 113.288 72.1352C114.469 74.7917 114.808 75.3968 115.177 75.6329C115.944 76.0904 116.845 75.9133 117.42 75.1606C117.745 74.7622 117.642 73.7291 117.184 72.8141C116.062 70.6003 114.454 66.8665 114.203 65.8777C114.041 65.2726 113.922 64.2838 113.922 63.6492C113.922 62.3505 114.38 57.2441 114.808 53.9088C115.398 49.2157 115.339 48.0645 114.469 46.1607C114.041 45.2309 111.045 41.0101 108.949 38.3831L108.152 37.3796L108.329 36.0956C108.595 34.1327 108.418 30.8712 107.96 29.0264C107.001 25.1745 105.289 22.2228 102.367 19.4188C99.6365 16.777 96.3749 15.0946 92.3754 14.2534C90.5011 13.8549 85.2472 13.8992 83.6385 14.3124L82.5022 14.6076L82.4579 10.1654C82.4136 6.01829 82.3841 5.66409 82.0889 4.85239C81.4248 3.11092 79.9785 1.70889 78.178 1.07428C77.3368 0.779114 77.0268 0.779114 41.43 0.793877C12.858 0.793877 5.40511 0.83815 4.93285 0.985733ZM77.7943 4.54247C78.1337 4.79336 78.5765 5.26562 78.7536 5.57555C79.0782 6.15112 79.093 6.25443 79.0782 11.1099V16.0539L77.8386 16.8361C73.3373 19.6844 70.1052 24.3775 68.9688 29.7053C68.6442 31.2696 68.5409 34.5165 68.7475 36.2727C69.5001 42.1907 72.8208 47.4447 77.9271 50.78L79.2258 51.6213L79.2406 55.4879V59.3693H41.4595H3.6784V33.0554C3.6784 15.1684 3.72267 6.5791 3.84074 6.19539C4.03259 5.47224 4.77051 4.64577 5.52318 4.30634C6.08399 4.04069 7.5303 4.02592 41.6366 4.07021L77.1449 4.09972L77.7943 4.54247ZM92.5378 17.5002C99.0609 19.2122 103.754 24.1119 105.023 30.576C105.363 32.3175 105.333 35.1068 104.949 36.9516C104.64 38.4717 103.843 40.6264 103.119 41.9546C102.677 42.7368 101.378 44.7587 101.304 44.7587C101.275 44.7587 100.994 44.3012 100.655 43.7404C100.33 43.1795 99.7545 42.4121 99.3856 42.0579C97.467 40.1393 94.7663 40.036 92.9805 41.8218C91.4161 43.4009 91.239 45.5999 92.4492 48.6844C92.7296 49.4075 92.9067 50.0274 92.8477 50.0864C92.5968 50.3373 90.1617 50.662 88.5826 50.662C80.4508 50.662 73.4554 44.7439 71.9943 36.6416C71.6844 34.9592 71.7582 31.8452 72.1271 30.1333C73.4111 24.1709 77.8828 19.345 83.609 17.6773C85.6161 17.087 86.2065 17.0279 88.7597 17.0722C90.693 17.1165 91.3719 17.1903 92.5378 17.5002ZM94.2645 54.6024C94.6629 56.3586 94.7663 57.1556 94.6039 57.1556C94.4711 57.1556 92.8182 53.9531 92.8182 53.7169C92.8182 53.6431 93.5266 53.3775 93.8808 53.3332C93.925 53.3184 94.1021 53.894 94.2645 54.6024ZM79.2406 64.4166C79.2406 65.3317 79.1668 66.3352 79.0782 66.6451C78.8716 67.3831 78.1337 68.2095 77.322 68.5785L76.6579 68.8884L41.9022 68.9327C17.8315 68.9622 6.92521 68.9179 6.40867 68.8146C5.40511 68.5932 4.6672 68.0767 4.16542 67.2355C3.79646 66.5861 3.75219 66.3942 3.70791 64.6528L3.64888 62.7637H41.4447H79.2406V64.4166ZM49.7241 72.2828C49.7241 72.3123 49.9602 73.921 50.2406 75.8543C50.5358 77.7876 50.8015 79.6471 50.8605 79.9866L50.949 80.6212H41.4743C36.2646 80.6212 32.0142 80.5622 32.0142 80.4884C32.0142 80.3408 33.003 73.3601 33.1211 72.6813L33.2096 72.209H41.4595C46.005 72.209 49.7241 72.2385 49.7241 72.2828ZM59.6269 84.296C59.8187 84.5321 59.9073 84.8716 59.9073 85.4324V86.2293H41.5333H23.1593V85.3586C23.1593 84.5912 23.2035 84.4436 23.543 84.1779L23.9415 83.868L41.6366 83.8975L59.3465 83.9418L59.6269 84.296Z" fill="#1FAC88"/>
<path d="M39.0243 8.29025C38.3749 8.57066 38.1978 8.96913 38.0502 10.4597C37.8289 12.6439 37.8879 12.5259 36.9286 12.8505C36.4564 13.0129 35.866 13.2343 35.6151 13.3376C35.1576 13.5147 35.1134 13.4999 34.0803 12.6144C32.7815 11.478 32.2945 11.2124 31.7632 11.3452C31.2319 11.478 28.0884 14.6068 27.9556 15.1381C27.7933 15.7874 27.9704 16.1859 29.0477 17.4994C30.0513 18.7391 30.0513 18.7391 29.8299 19.1671C29.6971 19.4032 29.4462 19.9935 29.2691 20.4806L28.9444 21.3661L27.3505 21.5579C25.6386 21.7645 25.0925 22.0007 24.9154 22.6353C24.7531 23.1813 24.7678 27.1365 24.9302 27.5498C25.1515 28.1401 25.7124 28.4057 27.1144 28.5386C29.0182 28.7452 28.9887 28.7304 29.1953 29.4388C29.2986 29.793 29.5347 30.3538 29.7414 30.708L30.0808 31.3426L29.0625 32.5528C27.9261 33.881 27.7195 34.4271 28.0737 35.106C28.2065 35.3421 29.0182 36.2424 29.9185 37.1131C31.9994 39.1645 31.9994 39.1645 34.0803 37.4525L35.1871 36.5375L36.1464 36.9508C36.6777 37.1869 37.2238 37.364 37.3566 37.3787C37.7403 37.3787 37.7994 37.5854 38.006 39.3416C38.1683 40.7584 38.2421 41.0093 38.5668 41.3487C38.9505 41.7324 38.9653 41.7324 41.4446 41.7324C44.6914 41.7324 44.7062 41.7324 44.9276 38.8398L45.0309 37.5706L45.8573 37.305C46.3149 37.1721 46.9347 36.936 47.2151 36.7884L47.7169 36.5228L48.7647 37.4083C50.0487 38.5004 50.58 38.7808 51.1408 38.6479C51.7016 38.5004 54.8451 35.4011 54.9632 34.8698C55.096 34.2943 54.8746 33.8515 53.7973 32.538L52.838 31.3574L53.325 30.2653C53.5907 29.6749 53.8563 29.0846 53.8858 28.9518C53.9596 28.7894 54.3581 28.6861 55.5388 28.5681C57.2212 28.391 57.7525 28.1696 57.9886 27.5498C58.0772 27.3431 58.1362 26.2215 58.1362 25.0409C58.1362 22.6943 58.0181 22.222 57.3245 21.9121C56.9998 21.7645 54.8599 21.4398 54.1515 21.4398C54.0187 21.4398 53.8563 21.189 53.7382 20.82C53.6202 20.4806 53.3693 19.846 53.1774 19.418L52.8085 18.6358L53.694 17.6027C55.4797 15.5218 55.465 15.3447 53.2365 13.19C52.351 12.334 51.436 11.5371 51.1851 11.4338C50.6095 11.1976 50.152 11.4338 48.7942 12.6144C48.1301 13.2047 47.7169 13.4704 47.5398 13.4261C47.407 13.3818 46.7871 13.1605 46.182 12.9243L45.0752 12.4964L44.9571 11.2567C44.78 9.30857 44.721 9.07244 44.3372 8.64445L43.9978 8.23122L41.6512 8.2017C40.3673 8.18695 39.1866 8.21646 39.0243 8.29025ZM41.8136 11.7289C41.8579 11.9208 41.9317 12.393 41.9759 12.8063C42.1825 14.4887 42.5072 14.8724 44.0421 15.3152C44.5291 15.4628 45.4884 15.8612 46.1673 16.2154C46.8609 16.5696 47.5545 16.8648 47.7316 16.8648C48.1744 16.8648 48.9861 16.422 49.8568 15.6841L50.6243 15.0348L50.9342 15.3447L51.2441 15.6694L50.6538 16.3778C49.3993 17.8831 49.3108 18.4587 50.152 20.0083C50.4767 20.5986 50.8456 21.4989 50.9637 22.0302C51.436 23.934 51.7754 24.2587 53.6792 24.5243C54.2843 24.5981 54.7861 24.6867 54.8156 24.7162C54.8451 24.7457 54.8894 24.9228 54.9189 25.1294C54.9632 25.4836 54.9189 25.4984 53.9301 25.6164C51.9082 25.8378 51.3327 26.2658 51.0375 27.8006C50.9342 28.2877 50.5652 29.2617 50.2258 29.9406C49.8716 30.6342 49.5764 31.3721 49.5764 31.5935C49.5764 32.0953 49.8716 32.6561 50.639 33.6597C51.2441 34.4419 51.2441 34.4419 50.9637 34.737C50.6685 35.0174 50.6685 35.0174 50.093 34.5304C49.0451 33.6301 48.3662 33.2464 47.8645 33.2464C47.5841 33.2464 46.9347 33.4826 46.3001 33.822C45.7098 34.1467 44.7357 34.5452 44.1306 34.7075C42.4777 35.165 42.1678 35.5782 41.9464 37.5854C41.8283 38.5594 41.8136 38.6037 41.4299 38.6184C41.0609 38.6479 41.0166 38.5889 40.9429 37.9691C40.6477 35.6815 40.2935 35.165 38.7586 34.7075C38.1683 34.5304 37.1943 34.1319 36.5744 33.822C35.9693 33.5121 35.2757 33.2464 35.0543 33.2464C34.523 33.2464 33.8737 33.6006 32.9734 34.3681C32.2355 34.9879 32.2355 34.9879 31.8961 34.7223L31.5566 34.4419L32.1765 33.6597C32.9586 32.6856 33.3866 31.7263 33.2686 31.2836C33.2095 31.1065 32.9439 30.5162 32.6635 29.9849C32.3978 29.4388 32.0436 28.5238 31.8813 27.9335C31.3795 26.1182 31.0253 25.8378 29.0477 25.6164C27.9999 25.4984 27.9556 25.4836 27.9113 25.0999C27.8523 24.6719 27.8671 24.6571 29.6233 24.4653C31.1139 24.3029 31.3648 24.0521 31.8518 22.2663C32.0289 21.6317 32.4421 20.5986 32.752 19.9935C33.0767 19.3884 33.3424 18.7538 33.3424 18.6063C33.3424 18.1045 32.8996 17.2633 32.2207 16.4663C31.5566 15.6989 31.5419 15.6546 31.7927 15.389C31.9403 15.2266 32.1027 15.0938 32.1469 15.0938C32.1912 15.0938 32.6782 15.4628 33.2391 15.9055C34.6263 17.0124 34.9805 17.0714 36.5006 16.304C37.15 15.9793 38.0945 15.6103 38.5815 15.4775C40.1607 15.0643 40.6624 14.4297 40.81 12.5406C40.9133 11.419 40.9133 11.4042 41.3266 11.4042C41.6512 11.4042 41.7693 11.4928 41.8136 11.7289Z" fill="#1FAC88"/>
<path d="M40.1876 19.0048C38.5347 19.359 37.354 20.1264 36.4242 21.4251C34.1957 24.5244 35.3321 29.0552 38.7265 30.6638C39.8039 31.1656 41.3535 31.387 42.4456 31.1951C47.9209 30.1915 49.5148 23.0338 44.9397 19.9493C43.5377 19.0048 41.7667 18.6506 40.1876 19.0048ZM42.7112 22.3106C44.4527 23.0928 45.0283 25.1737 43.9657 26.7824C42.2685 29.3356 38.3576 28.1254 38.3576 25.0557C38.3576 22.901 40.7336 21.4104 42.7112 22.3106Z" fill="#1FAC88"/>
<path d="M21.242 45.7776C20.4598 46.0138 19.6481 46.5303 19.1316 47.1059C18.4675 47.8438 18.2166 48.3161 17.9952 49.3344C17.5229 51.4891 18.984 53.9389 21.124 54.5735C21.7881 54.7654 24.356 54.7949 41.6231 54.7949C61.045 54.7949 61.3844 54.7949 62.1666 54.4998C63.2882 54.0718 64.0852 53.3339 64.6608 52.1827C65.0592 51.3563 65.133 51.0463 65.133 50.1608C65.133 48.3751 64.2033 46.9288 62.5946 46.1318L61.7534 45.7186L41.6822 45.6891C30.643 45.6743 21.4486 45.7186 21.242 45.7776ZM61.3697 49.2753C62.0928 49.8804 61.9748 50.9283 61.1335 51.371C60.8974 51.5038 55.8944 51.5481 41.4756 51.5481H22.157L21.6995 51.1644C21.3306 50.8692 21.242 50.6626 21.242 50.2199C21.242 49.7771 21.3306 49.5705 21.6995 49.2753L22.157 48.8916H41.5346H60.9122L61.3697 49.2753Z" fill="#1FAC88"/>
<path d="M86.7389 26.6948C85.4992 26.9899 84.4661 27.5655 83.4773 28.51C82.5033 29.4398 82.031 30.163 81.6178 31.3584C80.9832 33.1884 81.1308 35.2988 81.9867 37.0551C82.518 38.1472 83.9201 39.5935 84.9679 40.1543C87.9343 41.7334 91.3582 41.2612 93.631 38.9441C95.0773 37.4831 95.7709 35.8154 95.7709 33.8378C95.7709 31.8897 95.0773 30.1777 93.6753 28.7314C91.8452 26.8128 89.2921 26.0602 86.7389 26.6948ZM89.6905 29.7793C90.7679 30.1039 91.9633 31.2403 92.3618 32.3029C92.9374 33.8378 92.6717 35.3579 91.6091 36.568C90.8122 37.4683 90.03 37.852 88.7903 37.9406C87.5358 38.0291 86.6651 37.7192 85.7206 36.8337C83.2412 34.5166 84.289 30.5467 87.5801 29.7055C88.2885 29.5136 88.8788 29.5431 89.6905 29.7793Z" fill="#1FAC88"/>
</svg>
