<svg width="116" height="98" viewBox="0 0 116 98" fill="none" xmlns="http://www.w3.org/2000/svg">
<path d="M75.9305 0.683655C73.3364 1.09982 68.0372 1.91828 64.1391 2.50092C51.9315 4.33205 52.0841 4.31818 51.3767 4.66499C50.6553 5.02567 49.9756 5.71928 49.6981 6.39902C49.5317 6.78745 49.5039 12.6277 49.5039 42.8969C49.5039 77.6607 49.5178 78.9509 49.7675 79.5057C50.0727 80.1716 50.905 80.9068 51.5847 81.0872C52.2367 81.2814 65.998 83.0293 66.7887 83.0293C68.0234 83.0293 68.6615 81.7531 67.8846 80.8375C67.4685 80.3381 68.1759 80.4629 59.5752 79.3532C54.1372 78.6595 52.6113 78.4098 52.4032 78.2295C52.1396 77.9937 52.1396 77.1197 52.1396 42.8553V7.71688L52.4587 7.37008C52.7916 6.98165 51.6264 7.16199 72.2544 4.15172C76.1386 3.59682 78.1085 3.29163 79.5789 3.04194L80.0228 2.97257V36.6266C80.0228 65.8971 80.0506 70.3362 80.2309 70.6691C80.4668 71.1269 80.6887 71.2379 81.4101 71.2379C81.8262 71.2379 82.0205 71.1547 82.2979 70.8078L82.6586 70.3778V36.7515C82.6586 13.0022 82.7002 3.12517 82.8112 3.12517C82.8944 3.12517 85.7798 3.7078 89.2201 4.42916C92.6743 5.15052 99.2359 6.49612 103.814 7.42557C110.778 8.82666 112.179 9.14572 112.387 9.39542C112.609 9.659 112.623 11.4208 112.623 42.2449C112.623 73.0829 112.609 74.8169 112.387 75.0111C112.179 75.2054 108.1 76.3984 99.5134 78.7983C98.4591 79.0896 97.5851 79.4225 97.4048 79.589C96.4476 80.4768 97.377 82.086 98.7365 81.864C99.014 81.8224 102.427 80.9068 106.311 79.8387C114.051 77.7024 114.149 77.6746 114.912 76.44L115.328 75.7741L115.369 42.5501C115.383 20.5626 115.355 9.15959 115.258 8.81279C115.05 8.06369 114.246 7.07876 113.566 6.7597C113.205 6.59323 108.322 5.51119 101.525 4.1101C95.2268 2.80611 88.3046 1.3634 86.1266 0.905609C83.9487 0.447823 81.8262 0.031662 81.4101 0.00391388C80.9107 -0.0377045 79.0379 0.198128 75.9305 0.683655Z" fill="#1FAC88"/>
<path d="M71.9803 8.70321C64.6696 9.56329 57.3174 10.4927 56.6237 10.6453C56.1382 10.7424 55.7637 10.9366 55.514 11.2002L55.1255 11.6025L55.0839 43.1619C55.0562 77.898 54.9868 75.2761 55.8885 75.7478C56.1521 75.8865 57.1925 76.0391 58.7601 76.1639C63.0882 76.5385 72.4104 77.3292 73.9224 77.4679C74.727 77.5373 75.5594 77.565 75.7674 77.5234C76.2807 77.4263 76.9188 76.7743 77.0298 76.2194C77.0714 75.9836 77.113 60.8906 77.113 42.6763C77.113 16.6798 77.0714 9.5078 76.9327 9.24422C76.7246 8.84193 76.1975 8.45351 75.7258 8.3564C75.5316 8.32866 73.8531 8.48125 71.9803 8.70321ZM74.3386 15.6393V19.9536L73.9363 19.3987C73.104 18.2612 71.3006 17.0543 69.5527 16.4855C68.2487 16.0694 66.1678 15.9723 64.9055 16.2913C63.0188 16.763 60.9796 18.0392 59.7589 19.5513C59.0375 20.4391 57.9693 22.3951 57.9693 22.839C57.9693 22.9778 57.9139 23.1303 57.8306 23.172C57.7335 23.2275 57.6919 21.5628 57.6919 18.2751V13.2811L58.3578 13.1978C58.7184 13.1562 61.9091 12.7678 65.4604 12.3377C69.0117 11.9216 72.2578 11.5193 72.6739 11.4638C73.0901 11.3944 73.645 11.3389 73.8947 11.3251L74.3386 11.3112V15.6393ZM68.6094 19.0103C69.733 19.371 70.7873 19.9675 70.7041 20.2172C70.6763 20.2865 70.0937 21.0634 69.4278 21.9235L68.1932 23.491L67.7354 23.2968C67.4857 23.1858 67.0002 23.1026 66.6672 23.1026H66.0707L65.5436 21.2021C65.2384 20.1617 65.0026 19.2045 64.9887 19.0935C64.9471 18.5664 67.0834 18.5248 68.6094 19.0103ZM63.1437 22.4506L64.087 24.143L63.6986 24.8921C63.435 25.4193 63.324 25.8632 63.3102 26.3903C63.3102 26.7926 63.2963 27.1256 63.2963 27.1256C63.2824 27.1256 62.5194 27.2781 61.5761 27.4724C60.6328 27.6666 59.856 27.8192 59.8282 27.8192C59.8005 27.8192 59.7727 27.2365 59.7727 26.529C59.7727 25.1002 60.0086 23.9766 60.5496 22.9084C60.938 22.1454 61.9368 20.7443 62.1033 20.7443C62.1588 20.7582 62.6304 21.5212 63.1437 22.4506ZM73.3953 23.7407C73.8947 25.1696 73.9363 27.0284 73.4924 28.4573C73.3398 28.9844 73.1595 29.47 73.104 29.5255C73.0485 29.5809 72.2716 29.1925 71.3838 28.6376C69.7885 27.6527 69.7746 27.6388 69.8717 27.2088C69.9966 26.6678 69.9827 26.0851 69.844 25.447L69.7469 24.9615L71.0509 23.9627C71.7722 23.4078 72.4381 22.8668 72.5352 22.7558C72.8404 22.3951 73.0069 22.5893 73.3953 23.7407ZM67.5273 25.6828C67.9574 26.2239 67.9157 26.9175 67.4163 27.4169C66.9586 27.8747 66.7227 27.9024 66.154 27.6111C65.3771 27.2088 65.2107 26.2932 65.821 25.6828C66.3343 25.1834 67.125 25.1834 67.5273 25.6828ZM64.7667 29.2896C65.2245 29.8306 66.4453 30.0942 67.3886 29.8445L68.0267 29.678L69.0394 31.3288L70.0382 32.9658L69.4417 33.2293C66.9031 34.353 64.2673 33.9646 62.0617 32.1473C61.3126 31.5369 61.3126 31.5231 62.9217 30.2468C63.7402 29.5948 64.4616 29.0677 64.5032 29.0677C64.5587 29.0677 64.6696 29.1648 64.7667 29.2896ZM58.0942 30.4549C58.1913 30.8017 58.5104 31.4814 58.8017 31.9808C61.2848 36.198 66.2233 37.7239 70.5237 35.6015C71.8 34.9634 73.3398 33.7426 73.8669 32.9519C74.075 32.6467 74.2554 32.397 74.2831 32.397C74.3109 32.397 74.3386 34.3252 74.3386 36.6697V40.9562L68.0822 41.0394C64.2812 41.1088 61.7287 41.192 61.5623 41.2752C60.9519 41.6082 60.8825 42.0382 60.8825 45.4924C60.8825 47.2819 60.938 48.905 61.0212 49.0992C61.1877 49.557 61.7565 49.9038 62.3807 49.9593C62.6582 49.987 65.4742 50.0009 68.6232 50.0009L74.3386 50.0148V51.6794V53.3441H70.8012C65.5575 53.3441 65.8349 53.0944 65.932 57.8942L66.0014 61.1819L66.4175 61.5565L66.8476 61.9449H70.5931H74.3386V64.2061V66.4811L68.2764 66.5643C64.9471 66.6198 61.2016 66.6614 59.9531 66.6614H57.6919V48.1143C57.6919 37.9182 57.7474 29.6226 57.8029 29.6919C57.8722 29.7752 57.9971 30.1081 58.0942 30.4549ZM74.3386 45.5063V47.2403L68.97 47.2126L63.5876 47.1709L63.546 45.5479L63.5044 43.9248L64.7251 43.8694C65.391 43.8555 67.8325 43.8139 70.1492 43.8L74.3386 43.7722V45.5063ZM74.3386 57.7139V59.3092L71.5364 59.2814L68.7203 59.2398L68.6787 57.6722L68.6371 56.1185H71.4948H74.3386V57.7139ZM74.3386 72.0716C74.3386 74.2218 74.297 74.8183 74.1721 74.7767C74.075 74.749 70.5237 74.4299 66.2927 74.0831C62.0617 73.7363 58.3855 73.4172 58.1497 73.3756L57.6919 73.3063V71.378V69.4359L61.5484 69.3943C63.657 69.3804 67.4025 69.3527 69.8717 69.3249L74.3386 69.2972V72.0716Z" fill="#1FAC88"/>
<path d="M88.1132 10.8931C87.9467 10.9624 87.697 11.1844 87.5583 11.4064C87.3225 11.7532 87.3086 12.1971 87.3086 16.872C87.3086 21.8244 87.3225 21.977 87.5999 22.3654C87.7525 22.5735 88.0438 22.8232 88.2242 22.9064C88.5987 23.0868 106.841 25.5977 107.742 25.5977C108.186 25.5977 108.422 25.5006 108.769 25.1954L109.227 24.7931L109.268 20.1042C109.31 15.0964 109.282 14.8467 108.644 14.4166C108.436 14.2918 107.146 13.9866 105.703 13.7369C104.288 13.4733 99.9601 12.7103 96.0897 12.0167C92.2332 11.3231 88.9178 10.7544 88.7374 10.7682C88.571 10.7682 88.2797 10.8237 88.1132 10.8931ZM96.1868 14.8328C99.3913 15.4016 103.026 16.0397 104.274 16.2478L106.522 16.6362V19.6603C106.522 22.4487 106.508 22.6845 106.286 22.6845C106.147 22.6845 105.606 22.6151 105.065 22.5319C104.538 22.4625 103.442 22.3099 102.637 22.199C101.833 22.088 98.6838 21.6579 95.6319 21.2279C92.58 20.8117 90.0692 20.4649 90.0553 20.4649C90.0276 20.4649 90.0137 18.9667 90.0137 17.1356C90.0137 14.5692 90.0553 13.8062 90.194 13.8062C90.2773 13.8062 92.9823 14.264 96.1868 14.8328Z" fill="#1FAC88"/>
<path d="M44.2201 20.6453C43.9566 20.8256 40.7937 23.933 37.1869 27.5536L30.6392 34.1568L29.8346 33.3384C29.1133 32.617 28.9607 32.5338 28.4474 32.5338C28.0035 32.5338 27.7399 32.6448 27.185 33.0887C26.2695 33.81 26.0198 34.3094 25.9227 35.6273C25.7978 37.07 25.6313 37.2365 24.0499 37.4723C23.3979 37.5694 22.5656 37.7914 22.2049 37.9578C21.7332 38.1798 20.3876 39.4283 17.1415 42.6466C14.7139 45.0604 12.5221 47.3355 12.2585 47.7239C10.7187 49.9851 11.2597 52.4404 13.7012 54.3548C15.0052 55.3814 15.574 55.6172 16.767 55.6172C18.6952 55.6172 18.8062 55.534 24.0915 50.1793C26.6301 47.6129 28.8636 45.2407 29.0578 44.9356C29.2381 44.6165 29.4878 43.8813 29.5988 43.2986C29.7098 42.7299 29.8762 42.1195 29.9734 41.9669C30.1676 41.6617 30.8889 41.2733 31.2635 41.2733C31.86 41.2733 32.6646 40.8987 33.2888 40.33C34.0934 39.6086 34.3847 39.1092 34.3847 38.4433C34.3847 38.0272 34.2599 37.833 33.483 37.0839L32.5813 36.2238L39.2261 29.5651C42.8745 25.889 45.968 22.6984 46.0929 22.4487C46.5091 21.6163 46.3426 20.9088 45.6212 20.5343C45.0664 20.243 44.775 20.2707 44.2201 20.6453ZM30.9167 38.5127C30.9167 38.5682 30.6808 38.6514 30.4034 38.7069C28.711 39.026 27.2683 40.5658 27.0741 42.2721C27.0324 42.6744 26.9215 43.146 26.8382 43.3125C26.6579 43.6732 19.042 51.4971 18.2097 52.1907C17.4883 52.7734 16.8225 52.9537 16.2676 52.7179C16.0456 52.6208 15.4769 52.1769 15.0052 51.733C14.2145 50.9839 14.1312 50.859 14.1312 50.3457C14.1312 49.9296 14.2422 49.6244 14.5335 49.236C14.7555 48.9446 16.8225 46.8083 19.1391 44.5055C23.6615 40.0248 23.2869 40.3022 24.9516 40.0941C26.7966 39.8583 28.1977 38.4572 28.5029 36.5567L28.6 35.9463L29.7514 37.181C30.3895 37.8746 30.9167 38.4711 30.9167 38.5127Z" fill="#1FAC88"/>
<path d="M103.081 53.4958C102.263 53.8981 101.86 54.3975 97.227 60.5013C93.0376 66.0363 88.7095 71.6823 88.0991 72.4176C87.7662 72.806 87.7245 72.8199 86.4899 72.8337C85.3524 72.8337 85.1304 72.8754 84.312 73.2776C83.7571 73.5551 82.2311 74.6649 80.4277 76.1215C76.7655 79.0624 73.3945 81.5732 69.9958 83.9177C68.5531 84.8887 67.3046 85.832 67.1936 85.9985C66.5139 87.0528 66.9578 88.01 69.0525 89.9105C73.4639 93.9473 78.0417 96.3056 83.7432 97.5125C86.9754 98.1922 87.9742 98.109 88.432 97.124C88.543 96.8882 89.1256 95.0016 89.7499 92.9485C90.3603 90.8815 91.47 87.358 92.2191 85.1107C92.9682 82.8634 93.6619 80.6716 93.7451 80.2415C93.9254 79.3814 93.7728 78.3688 93.3983 77.7723C93.1902 77.4671 93.2041 77.4254 93.5786 77.0093C95.2572 75.192 96.0063 74.3181 102.498 66.397C105.925 62.2353 108.214 59.336 108.436 58.8921C108.824 58.1153 108.769 56.3674 108.325 55.5073C107.881 54.6472 106.896 53.7594 106.022 53.4403C105.079 53.1074 103.83 53.1351 103.081 53.4958ZM105.481 56.409C106.036 56.9084 106.133 57.491 105.731 58.0598C105.453 58.4621 104.205 59.9742 99.8628 65.204C98.1426 67.271 95.7288 70.1841 94.5081 71.6685C93.2734 73.1528 92.0527 74.6094 91.7891 74.9007L91.3036 75.4556L90.6655 74.9839C90.3048 74.7342 90.0135 74.4984 90.0135 74.4707C90.0135 74.4568 90.7487 73.5135 91.6504 72.3898C93.0515 70.6419 97.2409 65.1763 102.651 58.0598C103.872 56.4645 104.371 55.9928 104.815 55.979C104.912 55.979 105.204 56.1732 105.481 56.409ZM87.2113 75.8163C87.9604 76.2047 90.3048 78.1745 90.6655 78.7156C91.1649 79.4508 91.0816 80.0473 90.0828 83.0298C89.2644 85.4852 87.5303 90.9509 86.6148 94.0167C86.3651 94.8767 86.1847 95.2374 86.0321 95.2374C85.7686 95.2374 82.2866 94.4606 81.8704 94.308C81.5791 94.197 81.593 94.1554 82.2727 93.3647C83.4796 91.9219 85.4356 89.2446 85.5189 88.8978C85.6714 88.329 85.4634 87.8851 84.9362 87.6632C84.2565 87.3857 84.0345 87.5383 82.5641 89.3417C80.7329 91.5751 79.207 93.2953 79.0405 93.2953C78.874 93.2953 75.7805 91.7277 75.406 91.4642C75.184 91.2977 75.3366 91.1312 76.9597 89.7163C77.9446 88.8423 79.3873 87.4967 80.1503 86.706C81.3433 85.4852 81.5514 85.1939 81.5514 84.8194C81.5514 84.2228 81.0797 83.7234 80.5248 83.7234C80.178 83.7234 79.7341 84.0425 78.222 85.3604C77.1955 86.2621 75.6141 87.6215 74.7124 88.4123L73.0616 89.8272L72.0766 89.0088C71.5218 88.551 70.842 87.9267 70.5507 87.6354L70.0097 87.0805L72.7009 85.291C75.9331 83.1408 77.9446 81.6426 81.6624 78.6046C85.0888 75.8163 84.9917 75.8856 85.505 75.7053C86.1431 75.4833 86.6425 75.5111 87.2113 75.8163Z" fill="#1FAC88"/>
<path d="M1.68686 58.211C1.03487 58.4052 0.313513 59.1543 0.133174 59.8201C0.0221956 60.2363 -0.0194211 64.6754 0.00832335 75.4958C0.0499401 90.2004 0.0638123 90.6026 0.327385 91.0327C0.85453 91.9066 0.799041 91.9066 7.94325 91.9066H14.4077V92.9748C14.4077 94.362 14.6019 95.0279 15.0736 95.347C15.3788 95.5412 15.8643 95.5967 18.1393 95.6383C19.8872 95.666 21.0248 95.6244 21.3577 95.5273C22.0929 95.3053 22.4536 94.7921 22.4536 94.0013C22.4536 93.6545 22.4952 93.0303 22.5368 92.628C22.634 91.9205 22.6478 91.9066 23.0779 91.9066C23.5079 91.9066 23.5356 91.9344 23.6189 92.5448C23.6605 92.9054 23.7021 93.5158 23.7021 93.9042C23.7021 94.7504 23.9657 95.1805 24.6177 95.4579C25.2836 95.7354 29.903 95.7354 30.5689 95.4579C31.3596 95.125 31.5816 94.5285 31.5954 92.628L31.6093 91.9066H32.1642H32.7191V93.2939C32.7191 94.6256 32.7329 94.695 33.1214 95.125L33.5237 95.5828H36.5756C40.5985 95.5828 40.6401 95.555 40.7372 93.2522L40.7927 91.9066H43.0816C45.5925 91.9066 46.1335 91.7818 46.4387 91.1298C46.5497 90.8801 46.5913 86.4965 46.5913 74.9409C46.5913 57.5035 46.6468 58.7242 45.759 58.2664C45.4122 58.0861 42.6655 58.0584 23.7437 58.0722C10.9813 58.0722 1.95044 58.1416 1.68686 58.211ZM43.9833 74.9825L44.025 89.1322H41.6251C38.268 89.1322 38.1292 89.2154 38.0183 91.5182L37.9489 92.8777H36.6727H35.3825L35.4103 91.5876C35.4242 90.1587 35.1883 89.5067 34.578 89.2709C34.3837 89.1877 33.2462 89.1322 32.0393 89.1322C30.0417 89.1322 29.8059 89.1599 29.4868 89.4096C29.0152 89.7842 28.8348 90.4639 28.8348 91.7957V92.8777H27.5863H26.3378V91.6292C26.3378 89.3541 26.0465 89.1322 23.0224 89.1322C21.76 89.1322 20.8028 89.1877 20.5947 89.2848C20.0398 89.5484 19.8179 90.2004 19.8179 91.6153V92.8777H18.5H17.1822V91.4489C17.1822 90.0339 17.1822 90.0061 16.766 89.6177L16.336 89.2154L12.8401 89.2016C10.9258 89.1877 7.86001 89.1738 6.05662 89.1599L2.75503 89.1322V74.9825V60.8328H23.3553H43.9556L43.9833 74.9825Z" fill="#1FAC88"/>
<path d="M8.5115 65.3292C7.94274 65.5789 7.37397 66.2725 7.19363 66.9383C7.09653 67.299 7.05491 69.907 7.08266 74.5958C7.12427 82.6001 7.08266 82.2672 8.19244 83.0024L8.77507 83.377H16.3354C23.2299 83.377 23.9513 83.3492 24.3397 83.1411C24.9362 82.8082 25.4773 82.1423 25.5744 81.6013C25.616 81.3516 25.6437 77.8697 25.616 73.8606L25.5744 66.5638L25.1998 66.0783C24.4646 65.1072 24.7143 65.135 16.3909 65.135C10.4952 65.1488 8.84443 65.1904 8.5115 65.3292ZM23.008 74.2906V80.8106H16.4187H9.82936V74.2906V67.7707H16.4187H23.008V74.2906Z" fill="#1FAC88"/>
<path d="M32.7745 65.2746C32.6081 65.3301 32.3445 65.566 32.178 65.774C31.8867 66.1486 31.8867 66.1763 31.8867 74.1806C31.8867 80.6867 31.9283 82.2959 32.0809 82.6704C32.4694 83.586 33.8704 83.697 34.3837 82.8508C34.6473 82.4207 34.6612 82.0878 34.6612 74.3193C34.6612 65.2746 34.6889 65.5521 33.7179 65.2885C33.1213 65.122 33.163 65.122 32.7745 65.2746Z" fill="#1FAC88"/>
<path d="M36.895 65.467C36.1875 65.8555 36.2014 65.7445 36.1875 74.262C36.1875 83.1403 36.1736 83.0016 37.0753 83.3068C37.4499 83.4316 37.6857 83.4316 38.0603 83.3068C39.0036 83.0016 38.962 83.4177 38.962 74.3869C38.962 69.06 38.9065 66.1329 38.8232 65.9526C38.6429 65.6335 37.977 65.2728 37.547 65.2728C37.3667 65.2867 37.0753 65.3699 36.895 65.467Z" fill="#1FAC88"/>
<path d="M41.2214 65.5364C40.9301 65.7168 40.722 65.9942 40.6249 66.341C40.5139 66.7156 40.4862 69.1987 40.5139 74.706C40.5555 83.1542 40.5417 82.96 41.2769 83.2929C41.8734 83.5703 42.4144 83.4732 42.8583 83.0432L43.2606 82.6409V74.373V66.1191L42.9554 65.7584C42.5254 65.2729 41.804 65.1758 41.2214 65.5364Z" fill="#1FAC88"/>
</svg>
