<svg width="104" height="87" viewBox="0 0 104 87" fill="none" xmlns="http://www.w3.org/2000/svg">
<path d="M76.7273 0.183815C75.8044 0.595612 75.6766 0.893806 74.3844 5.9347L73.6318 8.81724L73.9584 11.8276C74.143 13.4747 74.3702 15.4201 74.4838 16.1585C74.64 17.1667 74.6826 19.1688 74.6826 24.2239V30.9404H72.2402C72.2402 30.9404 71.2259 30.9688 70.5727 31.2812C67.9458 32.5024 69.3516 39.7868 69.3516 39.7868L69.4557 40.1702C69.4557 40.1702 69.0392 40.1702 68.1162 40.1702C67.0086 40.1702 66.185 40.2412 65.7022 40.3832C64.5947 40.7098 63.5723 41.6186 62.9759 42.7971C62.5215 43.6917 62.4789 43.8621 62.4789 45.0549C62.4789 46.1483 62.5357 46.4749 62.8481 47.1281L63.2031 47.909L62.4647 48.5906C60.7181 50.181 60.3631 52.5381 61.5133 54.8953C61.7121 55.3071 61.9961 55.7473 62.1381 55.8751C62.3795 56.0881 62.3795 56.1307 62.0529 56.6277C61.3145 57.7352 61.0305 59.1552 61.2719 60.49C61.4707 61.5834 61.8541 62.3643 62.5073 63.0601L63.0043 63.5713L62.7061 64.3665C61.8683 66.5959 62.3511 68.8252 63.9983 70.3588C64.9354 71.2392 65.9862 71.6935 67.3068 71.7929L68.3718 71.8781V72.5313C68.386 74.4625 69.309 76.777 70.6011 78.0692C72.4613 79.9294 74.8326 80.4832 80.7965 80.4974H83.3525L85.9084 83.0533C87.5698 84.7147 88.6206 85.6661 88.9187 85.7655C89.5435 85.9643 90.2535 85.7229 90.7505 85.1407C91.0629 84.7573 91.1055 84.6011 91.0487 84.0047C90.9919 83.3089 90.9635 83.2805 88.0952 80.398C86.5048 78.7934 84.9996 77.4018 84.744 77.2882C84.389 77.132 83.4519 77.0894 80.6971 77.0894C78.7234 77.0894 76.636 77.0184 76.0538 76.9474C73.4269 76.6066 71.9927 75.2009 71.8081 72.8153L71.7371 71.8639L74.1369 71.7645C75.5284 71.7077 76.8632 71.58 77.3034 71.4664C78.7234 71.0688 79.7457 70.1742 80.4273 68.7116C80.7397 68.0442 80.7965 67.7318 80.7965 66.5817C80.7965 65.3889 80.7539 65.1333 80.3989 64.4091L79.9871 63.5997L80.4131 63.0601C81.9893 61.058 82.0887 58.3174 80.6403 56.4289L80.1575 55.7899L80.5693 55.1367C81.1373 54.2563 81.3361 53.2907 81.2651 51.9276C81.1941 50.8342 81.2083 50.8058 81.4923 50.8768C81.6627 50.9194 81.8331 50.962 81.8757 50.962C81.9325 50.962 82.0035 52.5807 82.0461 54.5403C82.1029 57.4796 82.1739 58.3884 82.4153 59.496C83.1253 62.7335 84.7156 66.3403 85.6954 66.9224C86.7888 67.5614 88.2514 66.7236 88.2514 65.4457C88.2514 65.2043 87.8822 64.2955 87.4136 63.3441C85.809 60.1634 85.4114 58.1612 85.4114 53.1771C85.4114 49.684 85.3404 49.2864 84.602 48.5196C84.1334 48.0368 84.0057 47.9942 80.3847 47.1991C76.8206 46.4181 76.21 46.1483 75.6846 45.1401C75.1876 44.1745 75.358 42.5273 76.0538 41.789C76.4798 41.3346 77.204 41.3488 80.2001 41.8032C85.3688 42.5841 86.8172 42.9249 88.6632 43.8053C90.9067 44.8561 92.5113 46.7163 93.3917 49.258C93.9738 50.962 94.0874 52.3393 94.1726 58.7718C94.2436 63.8269 94.2862 65.0197 94.4566 65.3605C94.698 65.8433 101.031 72.3893 101.5 72.6449C101.926 72.8863 102.664 72.8721 103.161 72.6165C103.899 72.2331 104.226 71.1682 103.828 70.4582C103.729 70.302 102.309 68.7542 100.648 67.0502L97.6374 63.9263L97.4954 57.6926C97.3676 52.4671 97.3108 51.2318 97.0694 50.0958C96.7002 48.2782 96.2458 46.9861 95.5358 45.7791C93.9596 43.1095 92.0853 41.5334 89.0323 40.298L87.7544 39.7868V37.3161C87.7544 34.2631 87.5982 33.6951 86.4054 32.4882C85.5534 31.6362 83.0888 31.1676 81.7398 30.9688L81.0015 30.8694L80.9589 24.4795L80.9305 18.0897L81.4985 13.4321C81.825 10.8762 82.0522 8.73204 82.0096 8.66104C81.967 8.60424 81.4843 6.90028 80.9305 4.88392C80.3767 2.83916 79.7945 1.05 79.6383 0.822807C79.4821 0.595612 79.1697 0.311615 78.9425 0.198021C78.4313 -0.057579 77.3095 -0.0717773 76.7273 0.183815ZM80.3964 8.9594C80.3964 8.9594 79.2721 16.5576 79.2721 16.4545C79.6469 32.1942 79.6469 30.6952 79.6469 30.6952C79.6557 30.6952 76.2741 30.6952 76.2741 30.6952L76.2741 24.2239L76.2741 16.4545L75.1498 8.95939L77.0062 3.65539C77.2601 2.92994 78.2861 2.92993 78.54 3.65539L80.3964 8.9594ZM83.6081 34.5045C84.318 34.8311 84.4458 35.3139 84.3464 37.2309L84.247 38.9774L82.5857 38.6508C78.6666 37.884 76.7922 37.742 75.4006 38.1254C73.9381 38.523 72.4444 39.4454 71.777 38.5651C71.1097 37.6705 71.4247 34.9021 71.8081 34.5187C72.0353 34.2915 83.1111 34.2773 83.6081 34.5045ZM72.0637 44.4017C72.0637 44.8561 72.1631 45.5661 72.2909 45.9779C72.4045 46.3897 72.4897 46.7447 72.4613 46.7731C72.4329 46.8015 71.2401 46.8441 69.7917 46.8583C67.5482 46.8867 67.0938 46.8583 66.7104 46.6595C65.7448 46.1483 65.4892 44.7283 66.2276 43.9899L66.6394 43.5781H69.3516H72.0637V44.4017ZM77.3176 50.749C78.3542 51.743 78.1412 53.6315 76.9484 54.0859C76.7638 54.1569 74.0801 54.2279 70.9987 54.2279C64.8644 54.2563 64.9922 54.2705 64.4385 53.4327C63.9415 52.6659 64.2681 51.0756 65.0064 50.6496C65.4324 50.394 67.7896 50.2946 72.7311 50.3088L76.8774 50.323L77.3176 50.749ZM77.7294 58.1186C78.7802 59.1268 78.5814 60.774 77.3602 61.271C76.6644 61.5692 66.2986 61.555 65.6028 61.271C64.3107 60.7314 64.1545 58.5162 65.3614 57.8488C65.688 57.6784 66.611 57.65 71.5241 57.6784L77.3034 57.7068L77.7294 58.1186ZM77.1614 65.2469C77.8146 66.0847 77.6726 67.4478 76.849 68.03C76.3946 68.3566 76.3378 68.3566 71.7939 68.3992C68.6132 68.4276 67.0654 68.385 66.7956 68.2856C65.901 67.9022 65.4324 66.894 65.7022 65.9001C66.0004 64.8209 65.6596 64.8777 71.5809 64.8777H76.8774L77.1614 65.2469Z" fill="#1FAC88"/>
<path d="M6.20527 1.27681C3.13814 1.788 1.07918 3.66236 0.241395 6.7011C0.0141997 7.52469 0 9.96703 0 43.7907C0 72.8149 0.0425991 80.1562 0.184596 80.781C0.667386 82.8683 2.15836 84.8705 3.83392 85.7083C5.50949 86.5461 4.38771 86.5177 27.7604 86.5177C47.995 86.5319 49.3298 86.5177 50.196 86.2763C51.4455 85.9355 52.4679 85.2823 53.4761 84.2173C54.3423 83.2943 54.6973 82.7121 55.2227 81.349L55.5209 80.568L55.5635 44.2877C55.5777 22.3208 55.5493 7.73768 55.4641 7.29749C54.9671 4.62794 53.0359 2.37019 50.48 1.50401L49.557 1.19161L28.2574 1.17741C16.4291 1.16322 6.63126 1.20582 6.20527 1.27681ZM49.912 5.08234C50.7782 5.53673 51.2894 6.03371 51.7011 6.8289L52.0419 7.49628V43.6913C52.0419 84.5013 52.1555 80.6816 50.906 81.9312C49.6848 83.1523 51.6301 83.0671 27.4622 83.0245L6.07748 82.9819L5.38169 82.5559C4.62911 82.0874 3.86232 81.0792 3.62093 80.2414C3.52153 79.8864 3.47893 67.8166 3.47893 43.8475C3.47893 13.872 3.50733 7.87968 3.67772 7.34009C4.01852 6.17571 4.8705 5.32373 6.16267 4.86934C6.57447 4.71314 10.806 4.68475 27.9734 4.71314L49.273 4.74154L49.912 5.08234Z" fill="#1FAC88"/>
<path d="M10.7646 11.6423C10.5232 11.7133 10.154 11.9831 9.94104 12.2245C9.61445 12.6221 9.55765 12.7783 9.62865 13.3747C9.69964 14.2409 10.154 14.7378 11.0202 14.9082C11.8438 15.0644 43.6937 15.0644 44.5173 14.9082C45.4261 14.7236 45.9373 14.1131 45.9373 13.2043C45.9373 12.3807 45.5397 11.8695 44.7161 11.6423C44.0203 11.4435 11.432 11.4435 10.7646 11.6423Z" fill="#1FAC88"/>
<path d="M10.4095 20.0907C9.89833 20.3605 9.58594 20.9853 9.58594 21.7237C9.58594 22.1923 9.67114 22.3911 10.0687 22.7887L10.5515 23.2715H27.7616H44.9716L45.4544 22.7887C45.852 22.3911 45.9372 22.1923 45.9372 21.7237C45.9372 20.9285 45.6248 20.3747 45.0284 20.0907C44.5882 19.8778 42.9979 19.8636 27.6622 19.8636C13.0223 19.8778 10.7361 19.9062 10.4095 20.0907Z" fill="#1FAC88"/>
<path d="M10.778 28.3974C10.0254 28.6104 9.65625 29.15 9.65625 30.0162C9.65625 30.9108 10.0254 31.422 10.849 31.6491C11.559 31.8479 43.9769 31.8337 44.6869 31.6491C45.4395 31.4362 45.9365 30.783 45.9365 30.002C45.9365 29.4766 45.8513 29.2778 45.4537 28.8376L44.9709 28.3122L28.0875 28.2838C18.4885 28.2696 11.0336 28.3122 10.778 28.3974Z" fill="#1FAC88"/>
<path d="M27.123 46.2325C24.4393 46.5591 22.2667 48.4477 21.5851 51.032C20.8468 53.9004 22.1815 57.0101 24.7375 58.3875C27.5916 59.9211 31.3687 59.0123 33.1295 56.3569C35.9127 52.1964 33.2289 46.6443 28.259 46.2467C27.8756 46.2183 27.3644 46.2041 27.123 46.2325ZM28.4862 49.6973C30.2896 50.0807 31.3829 52.1964 30.673 53.9146C29.679 56.2575 26.1007 56.3427 25.0499 54.0282C24.1553 52.0402 25.4049 49.8819 27.6484 49.5553C27.7052 49.5411 28.0744 49.6121 28.4862 49.6973Z" fill="#1FAC88"/>
</svg>
