<svg width="96" height="89" viewBox="0 0 96 89" fill="none" xmlns="http://www.w3.org/2000/svg">
<path d="M5.26722 0.111382C4.64969 0.165871 3.77787 0.420151 3.28747 0.656273C2.23403 1.20116 0.926305 2.56337 0.399582 3.70763L0 4.56129V33.531V60.9979C0 61.9689 0.20177 62.9349 0.667945 63.7868C0.978051 64.3534 1.34176 64.9593 1.73286 65.4973C2.57661 66.6581 4.03155 66.9985 5.46659 67.0077L19.1255 67.0959L33.6921 67.1504L33.5831 67.8225C33.5286 68.1857 33.1472 70.6922 32.7294 73.3984L31.9666 78.3024L28.6065 78.3932C25.4098 78.484 25.21 78.5204 24.32 78.9744C23.1031 79.6101 21.9589 80.9179 21.6138 82.0803C21.4685 82.5888 21.3413 83.6968 21.3413 84.5686C21.3413 86.3849 21.6683 87.0932 22.7944 87.6744C23.3937 88.0014 24.3745 88.0195 45.952 88.0195C67.5294 88.0195 68.5102 88.0014 69.2186 87.6744C69.6363 87.4928 70.163 87.0569 70.3992 86.73C70.7806 86.1851 70.8351 85.9126 70.8351 84.387C70.8351 82.7886 70.7806 82.5525 70.2357 81.4446C69.6363 80.2277 68.9461 79.5193 67.6566 78.8291C67.1117 78.5385 66.5305 78.484 63.6244 78.4296C61.7355 78.3932 60.2098 78.3206 60.2098 78.2842C60.2098 78.2116 58.8476 69.9475 58.4843 67.7135L58.3754 67.1323H68.0198L89.0206 67.0877H89.4283C92.6582 67.0877 95.2766 64.4694 95.2766 61.2395L95.2766 53.9263L94.919 54.2094C95.5547 53.5737 94.4104 54.9722 93.7202 54.2094L92.358 55.1266L92.2314 60.3462C92.1881 62.1272 90.7345 63.5498 88.953 63.5545L41.1933 63.6813C18.1441 63.6187 9.48573 63.521 6.12814 63.3593C4.477 63.2798 3.44135 62.0323 3.32733 60.3832C3.2232 58.8771 3.17237 56.9671 3.14217 55.3264H36.7253C59.6831 55.3264 93.6658 55.2719 94.138 55.1266C95.3367 54.7997 95.6818 53.4556 94.8282 52.4022L94.4831 51.9663H37.2883H3.26931L3.3238 28.7179L3.37829 5.46942L3.75971 4.7974C4.01399 4.3615 4.43173 3.98007 4.90397 3.74396C5.64864 3.3807 6.03006 3.3807 47.7864 3.3807H89.9061L90.6144 3.79844C92.0129 4.5976 91.9948 4.66117 91.9948 12.9253C91.9948 53.3921 92.0493 53.9188 92.8666 54.3547C93.4478 54.6635 94.4468 54.5908 94.919 54.2094L95.3549 53.8643V12.9253V4.56129L94.8463 3.54417C94.2651 2.32726 92.8666 0.965034 91.6678 0.420151L90.8142 0.0205688L48.5856 0.00241089C25.3553 -0.0157547 5.8666 0.0387344 5.26722 0.111382ZM55.0152 67.3502C55.1061 67.6227 56.777 78.0663 56.7589 78.2479C56.7589 78.3387 51.9276 78.3932 46.0428 78.3932H35.3267L35.4175 77.9755C35.472 77.7575 35.8353 75.4508 36.2349 72.8536C36.6344 70.2563 37.0159 67.9133 37.0704 67.6227L37.1793 67.1323H46.061C53.0173 67.1323 54.9608 67.1868 55.0152 67.3502ZM66.8574 82.4617C67.366 82.9703 67.4749 83.2245 67.4749 83.8239V84.5686H56.8134C50.9286 84.5686 41.3386 84.6231 35.472 84.6957L24.7923 84.8047V83.9147C24.7923 82.9884 25.101 82.4435 25.7912 82.0621C26.0455 81.9168 31.9666 81.8623 46.2063 81.8442H66.2399L66.8574 82.4617Z" fill="#1FAC88"/>
<path d="M44.9334 9.10328C44.6609 9.24859 44.3522 9.63001 44.2432 9.93877C44.1161 10.3384 44.0434 13.6077 44.0434 20.2371V29.9361L41.4098 27.3933C38.7035 24.7778 38.1768 24.4509 37.2505 24.8141C36.1607 25.2319 35.9246 26.5214 36.7601 27.6475C37.0507 28.029 38.9941 30.045 41.0829 32.1156C46.0595 37.0559 45.224 37.0196 49.91 32.5515C55.0319 27.6657 55.3044 27.3569 55.3044 26.4488C55.3044 25.4135 54.6868 24.8141 53.6516 24.8141C52.9432 24.8141 52.7979 24.9231 50.4186 27.2116C49.0564 28.5375 47.9303 29.6818 47.8939 29.7544C47.567 30.4991 47.4943 28.7373 47.4943 19.9283V9.93877L47.0948 9.46654C46.5862 8.88533 45.5872 8.72186 44.9334 9.10328Z" fill="#1FAC88"/>
<path d="M32.4004 41.5055C31.6738 42.2501 31.6738 43.1583 32.4004 43.903L32.9452 44.4297L45.8409 44.3934C58.682 44.3389 58.7546 44.3389 59.1179 43.9575C59.3358 43.7395 59.5538 43.2309 59.6083 42.8314C59.6991 42.1775 59.6446 42.014 59.1542 41.5236L58.6093 40.9787H45.7682H32.9271L32.4004 41.5055Z" fill="#1FAC88"/>
</svg>
