<svg width="19" height="25" viewBox="0 0 19 25" fill="none" xmlns="http://www.w3.org/2000/svg">
<path d="M4.75 5.77118C4.75 5.51617 4.85009 5.2716 5.02825 5.09127C5.20641 4.91095 5.44804 4.80965 5.7 4.80965H13.3C13.552 4.80965 13.7936 4.91095 13.9718 5.09127C14.1499 5.2716 14.25 5.51617 14.25 5.77118C14.25 6.0262 14.1499 6.27077 13.9718 6.45109C13.7936 6.63142 13.552 6.73272 13.3 6.73272H5.7C5.44804 6.73272 5.20641 6.63142 5.02825 6.45109C4.85009 6.27077 4.75 6.0262 4.75 5.77118ZM5.7 10.5789H13.3C13.552 10.5789 13.7936 10.4776 13.9718 10.2972C14.1499 10.1169 14.25 9.87235 14.25 9.61734C14.25 9.36232 14.1499 9.11775 13.9718 8.93743C13.7936 8.7571 13.552 8.6558 13.3 8.6558H5.7C5.44804 8.6558 5.20641 8.7571 5.02825 8.93743C4.85009 9.11775 4.75 9.36232 4.75 9.61734C4.75 9.87235 4.85009 10.1169 5.02825 10.2972C5.20641 10.4776 5.44804 10.5789 5.7 10.5789ZM19 1.92503V23.0789C19 23.5889 18.7998 24.078 18.4435 24.4387C18.0872 24.7993 17.6039 25.002 17.1 25.002H1.9C1.39609 25.002 0.912816 24.7993 0.556497 24.4387C0.200178 24.078 0 23.5889 0 23.0789V1.92503C0 1.415 0.200178 0.925856 0.556497 0.565209C0.912816 0.204562 1.39609 0.00195313 1.9 0.00195312H17.1C17.6039 0.00195313 18.0872 0.204562 18.4435 0.565209C18.7998 0.925856 19 1.415 19 1.92503ZM17.1 1.92503H1.9V23.0789H17.1V1.92503ZM9.5 17.3096C9.21816 17.3096 8.94265 17.3942 8.70831 17.5527C8.47397 17.7112 8.29133 17.9365 8.18347 18.2C8.07562 18.4636 8.0474 18.7536 8.10238 19.0333C8.15736 19.3131 8.29308 19.5701 8.49237 19.7718C8.69166 19.9735 8.94557 20.1109 9.222 20.1665C9.49842 20.2222 9.78494 20.1936 10.0453 20.0845C10.3057 19.9753 10.5283 19.7904 10.6848 19.5533C10.8414 19.3161 10.925 19.0372 10.925 18.752C10.925 18.3694 10.7749 18.0026 10.5076 17.7321C10.2404 17.4616 9.87793 17.3096 9.5 17.3096Z" fill="#3F99D0"/>
</svg>
