<svg width="21" height="20" viewBox="0 0 21 20" fill="none" xmlns="http://www.w3.org/2000/svg">
<path d="M20.3061 11.8074C20.0754 10.9084 19.6463 10.0783 19.0529 9.38348C18.4596 8.68868 17.7186 8.1485 16.8893 7.80619C16.06 7.46389 15.1654 7.32897 14.2771 7.41224C13.3888 7.49551 12.5316 7.79466 11.774 8.28573L13.3344 1.78488C13.3731 1.62337 13.3622 1.45325 13.3033 1.29853C13.2443 1.14382 13.1403 1.01232 13.0059 0.922608C12.3581 0.495796 11.6347 0.209312 10.8787 0.0802035C10.1226 -0.0489049 9.3494 -0.0179997 8.60503 0.17108C7.86066 0.36016 7.16035 0.703551 6.54577 1.18082C5.93119 1.65809 5.41489 2.25948 5.0276 2.94921C4.64031 3.63895 4.38995 4.40292 4.2914 5.19568C4.19286 5.98845 4.24815 6.79379 4.45398 7.5638C4.65981 8.33381 5.01198 9.05275 5.48954 9.67784C5.96709 10.3029 6.56027 10.8214 7.23377 11.2024L1.05797 13.0431C0.904545 13.0887 0.768711 13.1835 0.669638 13.3139C0.570565 13.4444 0.513256 13.604 0.505797 13.7703C0.447182 15.1272 0.834471 16.4643 1.60353 17.5602C2.37259 18.6561 3.47729 19.445 4.7347 19.7963C5.21968 19.9322 5.71961 20.0013 6.22177 20.002C6.98697 19.9998 7.74398 19.8375 8.44796 19.5246C9.15194 19.2116 9.78858 18.7545 10.3202 18.1801C10.8518 17.6058 11.2675 16.926 11.5427 16.181C11.8179 15.436 11.9471 14.6409 11.9225 13.8428L16.5379 18.5039C16.6527 18.6198 16.7995 18.6951 16.9575 18.7191C17.1155 18.7432 17.2768 18.7148 17.4186 18.638C18.5734 18.0128 19.4891 16.9949 20.0141 15.7528C20.5392 14.5107 20.6422 13.1188 20.3061 11.8074ZM8.78653 11.112C8.78653 10.7976 8.87586 10.4903 9.04324 10.2289C9.21062 9.96753 9.44851 9.76381 9.72685 9.64351C10.0052 9.52321 10.3115 9.49173 10.6069 9.55306C10.9024 9.61439 11.1738 9.76577 11.3869 9.98806C11.5999 10.2103 11.745 10.4936 11.8037 10.8019C11.8625 11.1102 11.8324 11.4298 11.7171 11.7202C11.6018 12.0107 11.4065 12.2589 11.156 12.4335C10.9055 12.6082 10.611 12.7014 10.3098 12.7014C9.90578 12.7014 9.51834 12.534 9.23268 12.2359C8.94701 11.9378 8.78653 11.5335 8.78653 11.112ZM5.74004 5.94626C5.7398 5.20974 5.91792 4.4851 6.25787 3.83963C6.59781 3.19416 7.08855 2.64879 7.68452 2.25416C8.28049 1.85953 8.96236 1.62844 9.66682 1.58235C10.3713 1.53626 11.0755 1.67666 11.714 1.99052L10.2879 7.93307C9.74218 7.93734 9.20761 8.09448 8.74002 8.38806C8.27244 8.68165 7.88901 9.1009 7.62982 9.60199C7.04804 9.20499 6.57048 8.66269 6.24046 8.02429C5.91045 7.38589 5.73844 6.67161 5.74004 5.94626ZM8.31051 17.8244C7.69938 18.1929 7.00893 18.3942 6.30327 18.4098C5.59761 18.4253 4.89963 18.2546 4.27413 17.9134C3.64863 17.5722 3.1159 17.0716 2.7254 16.4581C2.3349 15.8446 2.0993 15.138 2.04046 14.4041L7.68694 12.7213C7.95539 13.1985 8.33857 13.5943 8.79858 13.8696C9.25858 14.1448 9.77948 14.2901 10.3098 14.2909H10.3964C10.3581 15.0145 10.1472 15.7167 9.78298 16.3337C9.41873 16.9508 8.91261 17.4632 8.31051 17.8244ZM18.4182 15.5396C18.1101 16.0974 17.6874 16.5771 17.1805 16.9443L12.9612 12.6835C13.2312 12.1887 13.3684 11.6271 13.3586 11.0577C13.3487 10.4884 13.192 9.93234 12.905 9.44801C13.7106 9.02367 14.6259 8.88212 15.5148 9.04444C16.4037 9.20676 17.2186 9.66426 17.8382 10.3489C18.4578 11.0335 18.849 11.9085 18.9535 12.8438C19.058 13.7791 18.8702 14.7246 18.4182 15.5396Z" fill="#3F99D0"/>
</svg>
