<svg width="25" height="24" viewBox="0 0 25 24" fill="none" xmlns="http://www.w3.org/2000/svg">
<path d="M15.373 0C15.6492 0 15.873 0.223858 15.873 0.5V4.33398H16.1689C18.3781 4.33398 20.1689 6.12485 20.1689 8.33398V8.625H24.0039C24.2799 8.62512 24.5039 8.84893 24.5039 9.125C24.5039 9.40107 24.2799 9.62488 24.0039 9.625H20.1699L20.1689 9.62402V11.5H22.0869C22.363 11.5001 22.5869 11.7239 22.5869 12C22.5869 12.2761 22.363 12.4999 22.0869 12.5H20.1699L20.1689 12.499V14.377H24.0039C24.2799 14.3771 24.5039 14.6009 24.5039 14.877C24.5039 15.153 24.2799 15.3768 24.0039 15.377H20.1699L20.1689 15.376V15.6689C20.1689 17.8781 18.3781 19.6689 16.1689 19.6689H15.873V23.502C15.873 23.7781 15.6492 24.002 15.373 24.002C15.0969 24.002 14.873 23.7781 14.873 23.502V19.6689H12.998V21.5859C12.998 21.8621 12.7742 22.0859 12.498 22.0859C12.2219 22.0859 11.998 21.8621 11.998 21.5859V19.6689H10.123V23.502C10.123 23.7781 9.89919 24.002 9.62305 24.002C9.3469 24.002 9.12305 23.7781 9.12305 23.502V19.6689H8.83398L8.62793 19.6641C6.51454 19.5568 4.83398 17.809 4.83398 15.6689V15.377H1C0.723961 15.3768 0.5 15.153 0.5 14.877C0.5 14.6009 0.723961 14.3771 1 14.377H4.83398V12.5H2.91699C2.6409 12.4999 2.41699 12.2761 2.41699 12C2.41699 11.7239 2.6409 11.5001 2.91699 11.5H4.83398V9.625H1C0.723961 9.62488 0.5 9.40107 0.5 9.125C0.5 8.84893 0.723961 8.62512 1 8.625H4.83398V8.33398C4.83398 6.12485 6.62485 4.33398 8.83398 4.33398H9.12305V0.5C9.12305 0.223858 9.3469 0 9.62305 0C9.89919 0 10.123 0.223858 10.123 0.5V4.33398H11.998V2.41602C11.998 2.13987 12.2219 1.91602 12.498 1.91602C12.7742 1.91602 12.998 2.13987 12.998 2.41602V4.33398H14.873V0.5C14.873 0.223858 15.0969 0 15.373 0ZM8.83398 6.33398C7.79833 6.33398 6.94699 7.12121 6.84473 8.12988L6.83398 8.33398V15.6689C6.83398 16.7735 7.72942 17.6689 8.83398 17.6689H16.1689C17.2735 17.6689 18.1689 16.7735 18.1689 15.6689V8.33398C18.1689 7.2983 17.3818 6.44695 16.373 6.34473L16.1689 6.33398H8.83398ZM14.542 8.17871C15.5505 8.28118 16.3379 9.13247 16.3379 10.168V13.8359L16.3271 14.04C16.2315 14.9813 15.4832 15.7296 14.542 15.8252L14.3379 15.8359H10.6699L10.4658 15.8252C9.52439 15.7298 8.77631 14.9814 8.68066 14.04L8.66992 13.8359V10.168C8.66992 9.0634 9.56535 8.16797 10.6699 8.16797H14.3379L14.542 8.17871ZM10.6699 9.16797C10.1522 9.16797 9.72614 9.5613 9.6748 10.0654L9.66992 10.168V13.8359C9.67016 14.388 10.1178 14.8359 10.6699 14.8359H14.3379C14.8898 14.8357 15.3376 14.3879 15.3379 13.8359V10.168C15.3379 9.65011 14.9438 9.22394 14.4395 9.17285L14.3379 9.16797H10.6699Z" fill="#3F99D0"/>
</svg>
