<svg width="27" height="27" viewBox="0 0 27 27" fill="none" xmlns="http://www.w3.org/2000/svg">
<path d="M25.5 6C25.5 5.60218 25.342 5.22064 25.0607 4.93934C24.7794 4.65804 24.3978 4.5 24 4.5H3C2.60218 4.5 2.22064 4.65804 1.93934 4.93934C1.65804 5.22064 1.5 5.60218 1.5 6V21C1.5 21.3978 1.65804 21.7794 1.93934 22.0607C2.22064 22.342 2.60218 22.5 3 22.5H24C24.3978 22.5 24.7794 22.342 25.0607 22.0607C25.342 21.7794 25.5 21.3978 25.5 21V6ZM24 21H3V6H24V21Z" fill="#3F99D0" stroke="#3F99D0" stroke-width="0.5"/>
<path d="M8.87892 13.1633C8.87892 13.5429 8.99147 13.9139 9.20235 14.2295C9.41323 14.5451 9.71296 14.7911 10.0636 14.9363C10.4143 15.0816 10.8002 15.1196 11.1725 15.0456C11.5447 14.9715 11.8867 14.7887 12.1551 14.5203C12.4235 14.2519 12.6063 13.91 12.6803 13.5377C12.7544 13.1654 12.7164 12.7795 12.5711 12.4289C12.4259 12.0782 12.1799 11.7785 11.8643 11.5676C11.5487 11.3567 11.1776 11.2441 10.7981 11.2441C10.6337 11.2475 10.4703 11.2709 10.3116 11.3136L10.5468 12.1369C10.634 12.1132 10.7238 12.1006 10.8141 12.0995C11.0256 12.0995 11.2323 12.1622 11.4081 12.2797C11.5839 12.3971 11.721 12.5641 11.8019 12.7595C11.8828 12.9548 11.904 13.1698 11.8627 13.3772C11.8215 13.5846 11.7196 13.7751 11.5701 13.9246C11.4206 14.0742 11.2301 14.176 11.0227 14.2173C10.8153 14.2585 10.6003 14.2373 10.4049 14.1564C10.2096 14.0755 10.0426 13.9385 9.92512 13.7626C9.80764 13.5868 9.74494 13.3801 9.74494 13.1686C9.74491 13.0778 9.75935 12.9876 9.7877 12.9013L8.94307 12.6715C8.89995 12.8318 8.87838 12.9972 8.87892 13.1633Z" fill="#3F99D0"/>
<path d="M10.7973 17.2544C9.71315 17.253 8.67378 16.8217 7.90715 16.0551C7.14051 15.2884 6.7092 14.2491 6.70778 13.1649C6.70815 12.8037 6.75669 12.4441 6.85212 12.0957L6.02352 11.8926C5.70528 13.1438 5.88958 14.4699 6.53696 15.587C7.18434 16.704 8.24335 17.5232 9.48722 17.8691C10.7311 18.215 12.061 18.0601 13.1921 17.4377C14.3232 16.8152 15.1657 15.7747 15.5391 14.5388H14.641C14.3587 15.3326 13.8377 16.0197 13.1496 16.5059C12.4615 16.992 11.6399 17.2535 10.7973 17.2544Z" fill="#3F99D0"/>
<path d="M17.6077 13.03C17.6077 12.9166 17.5627 12.8078 17.4825 12.7276C17.4023 12.6474 17.2935 12.6023 17.1801 12.6023H15.7046C15.5657 11.3964 14.9885 10.2835 14.0827 9.47534C13.1769 8.66715 12.0058 8.21995 10.7918 8.21875C10.3622 8.22114 9.93457 8.27863 9.51953 8.38982L9.74406 9.21307C10.0932 9.12182 10.4524 9.07512 10.8132 9.07408C11.7898 9.08583 12.73 9.44623 13.4643 10.0903C14.1985 10.7343 14.6783 11.6196 14.8172 12.5863H13.7053C13.5919 12.5863 13.4831 12.6313 13.4029 12.7115C13.3227 12.7917 13.2776 12.9005 13.2776 13.0139C13.2776 13.1274 13.3227 13.2361 13.4029 13.3163C13.4831 13.3966 13.5919 13.4416 13.7053 13.4416H17.1801C17.2908 13.4417 17.3972 13.3988 17.477 13.3221C17.5567 13.2453 17.6036 13.1406 17.6077 13.03Z" fill="#3F99D0"/>
</svg>
