<svg width="27" height="17" viewBox="0 0 27 17" fill="none" xmlns="http://www.w3.org/2000/svg">
<path d="M24.7667 0.00195312H2.23333C1.77362 0.00195313 1.33274 0.190486 1.00768 0.526078C0.682619 0.861669 0.5 1.31683 0.5 1.79143V16.1072C0.5 16.3445 0.591309 16.5721 0.753841 16.7399C0.916372 16.9077 1.13681 17.002 1.36667 17.002C1.59652 17.002 1.81696 16.9077 1.97949 16.7399C2.14202 16.5721 2.23333 16.3445 2.23333 16.1072V14.3177H3.96667V16.1072C3.96667 16.3445 4.05798 16.5721 4.22051 16.7399C4.38304 16.9077 4.60348 17.002 4.83333 17.002C5.06319 17.002 5.28363 16.9077 5.44616 16.7399C5.60869 16.5721 5.7 16.3445 5.7 16.1072V14.3177H7.43333V16.1072C7.43333 16.3445 7.52464 16.5721 7.68717 16.7399C7.84971 16.9077 8.07015 17.002 8.3 17.002C8.52985 17.002 8.75029 16.9077 8.91283 16.7399C9.07536 16.5721 9.16667 16.3445 9.16667 16.1072V14.3177H10.9V16.1072C10.9 16.3445 10.9913 16.5721 11.1538 16.7399C11.3164 16.9077 11.5368 17.002 11.7667 17.002C11.9965 17.002 12.217 16.9077 12.3795 16.7399C12.542 16.5721 12.6333 16.3445 12.6333 16.1072V14.3177H14.3667V16.1072C14.3667 16.3445 14.458 16.5721 14.6205 16.7399C14.783 16.9077 15.0035 17.002 15.2333 17.002C15.4632 17.002 15.6836 16.9077 15.8462 16.7399C16.0087 16.5721 16.1 16.3445 16.1 16.1072V14.3177H17.8333V16.1072C17.8333 16.3445 17.9246 16.5721 18.0872 16.7399C18.2497 16.9077 18.4701 17.002 18.7 17.002C18.9299 17.002 19.1503 16.9077 19.3128 16.7399C19.4754 16.5721 19.5667 16.3445 19.5667 16.1072V14.3177H21.3V16.1072C21.3 16.3445 21.3913 16.5721 21.5538 16.7399C21.7164 16.9077 21.9368 17.002 22.1667 17.002C22.3965 17.002 22.617 16.9077 22.7795 16.7399C22.942 16.5721 23.0333 16.3445 23.0333 16.1072V14.3177H24.7667V16.1072C24.7667 16.3445 24.858 16.5721 25.0205 16.7399C25.183 16.9077 25.4035 17.002 25.6333 17.002C25.8632 17.002 26.0836 16.9077 26.2462 16.7399C26.4087 16.5721 26.5 16.3445 26.5 16.1072V1.79143C26.5 1.31683 26.3174 0.861669 25.9923 0.526078C25.6673 0.190486 25.2264 0.00195313 24.7667 0.00195312ZM2.23333 1.79143H24.7667V12.5283H2.23333V1.79143ZM11.7667 10.7388C11.9965 10.7388 12.217 10.6445 12.3795 10.4767C12.542 10.3089 12.6333 10.0814 12.6333 9.84406V4.47564C12.6333 4.23834 12.542 4.01076 12.3795 3.84296C12.217 3.67517 11.9965 3.5809 11.7667 3.5809H4.83333C4.60348 3.5809 4.38304 3.67517 4.22051 3.84296C4.05798 4.01076 3.96667 4.23834 3.96667 4.47564V9.84406C3.96667 10.0814 4.05798 10.3089 4.22051 10.4767C4.38304 10.6445 4.60348 10.7388 4.83333 10.7388H11.7667ZM5.7 5.37037H10.9V8.94932H5.7V5.37037ZM15.2333 10.7388H22.1667C22.3965 10.7388 22.617 10.6445 22.7795 10.4767C22.942 10.3089 23.0333 10.0814 23.0333 9.84406V4.47564C23.0333 4.23834 22.942 4.01076 22.7795 3.84296C22.617 3.67517 22.3965 3.5809 22.1667 3.5809H15.2333C15.0035 3.5809 14.783 3.67517 14.6205 3.84296C14.458 4.01076 14.3667 4.23834 14.3667 4.47564V9.84406C14.3667 10.0814 14.458 10.3089 14.6205 10.4767C14.783 10.6445 15.0035 10.7388 15.2333 10.7388ZM16.1 5.37037H21.3V8.94932H16.1V5.37037Z" fill="#3F99D0"/>
</svg>
