<svg width="25" height="23" viewBox="0 0 25 23" fill="none" xmlns="http://www.w3.org/2000/svg">
<path d="M20.7061 0.00683594C22.8194 0.114068 24.5 1.86192 24.5 4.00195V19.002L24.4951 19.208C24.3913 21.2532 22.7512 22.8933 20.7061 22.9971L20.5 23.002H5.5C3.35996 23.002 1.61211 21.3214 1.50488 19.208L1.5 19.002V8.50195H1.2002C0.813596 8.50195 0.5 8.18836 0.5 7.80176V4.70215C0.5 4.31555 0.813596 4.00195 1.2002 4.00195H1.5C1.5 1.79281 3.29086 0.00195317 5.5 0.00195312H20.5L20.7061 0.00683594ZM5.5 2.00195C4.46435 2.00195 3.613 2.78918 3.51074 3.79785L3.5 4.00195V19.002C3.5 20.1065 4.39543 21.002 5.5 21.002H20.5C21.6046 21.002 22.5 20.1065 22.5 19.002V4.00195C22.5 2.9663 21.7128 2.11496 20.7041 2.0127L20.5 2.00195H5.5ZM18.5 17.502C18.7761 17.502 19 17.7258 19 18.002C19 18.2781 18.7761 18.502 18.5 18.502H5.5C5.22386 18.502 5 18.2781 5 18.002C5 17.7258 5.22386 17.502 5.5 17.502H18.5ZM16 4.00195C16.2761 4.00195 16.5 4.22581 16.5 4.50195V13.502C16.5 13.7781 16.2761 14.002 16 14.002C15.7239 14.002 15.5 13.7781 15.5 13.502V4.50195C15.5 4.22581 15.7239 4.00195 16 4.00195ZM19 4.00195C19.2761 4.00195 19.5 4.22581 19.5 4.50195V13.502C19.5 13.7781 19.2761 14.002 19 14.002C18.7239 14.002 18.5 13.7781 18.5 13.502V4.50195C18.5 4.22581 18.7239 4.00195 19 4.00195ZM11.5 4.00195C12.0523 4.00195 12.5 4.44967 12.5 5.00195V10.002C12.5 10.5196 12.1067 10.9457 11.6025 10.9971L11.5 11.002H6.5L6.39746 10.9971C5.92703 10.9492 5.55278 10.5749 5.50488 10.1045L5.5 10.002V5.00195C5.5 4.44967 5.94772 4.00195 6.5 4.00195H11.5ZM6.5 10.002H11.5V5.00195H6.5V10.002Z" fill="#3F99D0"/>
</svg>
