<svg width="15" height="20" viewBox="0 0 15 20" fill="none" xmlns="http://www.w3.org/2000/svg">
<path d="M7.5 20.002C5.56667 20.002 3.91667 19.3186 2.55 17.952C1.18333 16.5853 0.5 14.9353 0.5 13.002V7.00195C0.5 5.06862 1.18333 3.41862 2.55 2.05195C3.91667 0.685287 5.56667 0.00195312 7.5 0.00195312C9.43333 0.00195312 11.0833 0.685287 12.45 2.05195C13.8167 3.41862 14.5 5.06862 14.5 7.00195V13.002C14.5 14.9353 13.8167 16.5853 12.45 17.952C11.0833 19.3186 9.43333 20.002 7.5 20.002ZM8.5 7.00195H12.5C12.5 5.80195 12.121 4.74362 11.363 3.82695C10.605 2.91029 9.65067 2.33529 8.5 2.10195V7.00195ZM2.5 7.00195H6.5V2.10195C5.35 2.33529 4.39567 2.91029 3.637 3.82695C2.87833 4.74362 2.49933 5.80195 2.5 7.00195ZM7.5 18.002C8.88333 18.002 10.0627 17.5143 11.038 16.539C12.0133 15.5636 12.5007 14.3846 12.5 13.002V9.00195H2.5V13.002C2.5 14.3853 2.98767 15.5646 3.963 16.54C4.93833 17.5153 6.11733 18.0026 7.5 18.002Z" fill="#3F99D0"/>
</svg>
