<svg width="25" height="24" viewBox="0 0 25 24" fill="none" xmlns="http://www.w3.org/2000/svg">
<path d="M22.5352 21.811H24.5022M22.5352 19.0352H24.5022" stroke="#3F99D0"/>
<mask id="path-2-inside-1_2262_4645" fill="white">
<rect x="0.503906" y="0.00195312" width="21.2445" height="15.0688" rx="1.57366"/>
</mask>
<rect x="0.503906" y="0.00195312" width="21.2445" height="15.0688" rx="1.57366" stroke="#3F99D0" stroke-width="4" mask="url(#path-2-inside-1_2262_4645)"/>
<path d="M3.25781 14.6738C3.25769 16.6566 3.25709 20.622 6.40615 20.622C10.183 20.622 17.2902 20.622 18.995 20.622M18.995 20.622L21.8901 18.4335C21.9938 18.3551 22.1424 18.429 22.1424 18.559V22.6851C22.1424 22.815 21.9938 22.889 21.8901 22.8106L18.995 20.622Z" stroke="#3F99D0"/>
<path d="M8.00391 4.5332C9.65703 4.5332 11.0039 5.88554 11.0039 7.56152C11.0037 9.23729 9.65688 10.5889 8.00391 10.5889C6.35093 10.5889 5.00415 9.23729 5.00391 7.56152C5.00391 5.88554 6.35078 4.5332 8.00391 4.5332Z" stroke="#3F99D0"/>
</svg>
