<svg width="35" height="23" viewBox="0 0 35 23" fill="none" xmlns="http://www.w3.org/2000/svg">
<path d="M3.05273 0.00195312C3.5197 0.00206502 3.89844 0.380671 3.89844 0.847656V3.99512C4.24286 3.60063 4.74868 3.3507 5.31348 3.35059H33.125L33.3164 3.36035C34.2641 3.45638 35.0037 4.25649 35.0039 5.22949V18.0654C35.0039 19.0386 34.2643 19.8395 33.3164 19.9355L33.125 19.9453H25.2246V21.4629C25.2246 21.9298 24.8458 22.3084 24.3789 22.3086H14.6973C14.2302 22.3086 13.8516 21.9299 13.8516 21.4629V19.9453H12.2471V21.7178C12.2471 22.1848 11.8684 22.5635 11.4014 22.5635H9.56836C9.1013 22.5635 8.72266 22.1848 8.72266 21.7178V19.9453H5.31348L5.12207 19.9355C4.63472 19.8862 4.20347 19.6495 3.89844 19.2998V22.5312C3.89844 22.7906 3.68804 23.0018 3.42871 23.002C3.16924 23.002 2.95898 22.7907 2.95898 22.5312V14.9307H1.40625C0.939194 14.9307 0.560547 14.552 0.560547 14.085V9.74121C0.560547 9.27416 0.939194 8.89551 1.40625 8.89551H2.95898V0.941406H0.469727C0.210251 0.941406 0 0.731155 0 0.47168C0 0.212204 0.210251 0.00195312 0.469727 0.00195312H3.05273ZM9.66211 21.624H11.3076V19.9453H9.66211V21.624ZM14.791 21.3691H19.2246L19.2295 21.3613L19.2422 21.3691H24.2842V19.9453H14.791V21.3691ZM5.43457 17.9453H33.0039V5.35059H5.43457V17.9453ZM25.2979 6.6709C27.8241 6.6709 29.8719 8.75207 29.8721 11.3193C29.8721 13.8868 27.8242 15.9688 25.2979 15.9688L25.0625 15.9619C22.6456 15.8373 20.7236 13.8065 20.7236 11.3193C20.7238 8.75213 22.7717 6.671 25.2979 6.6709ZM25.2979 7.42285C23.1982 7.42295 21.4758 9.15582 21.4756 11.3193C21.4756 13.483 23.1981 15.2167 25.2979 15.2168C27.3977 15.2168 29.1211 13.4831 29.1211 11.3193C29.1209 9.15576 27.3976 7.42285 25.2979 7.42285ZM1.5 13.9912H2.95898V9.83496H1.5V13.9912ZM25.4688 9.58008C26.3369 9.66962 27.0146 10.4154 27.0146 11.3213L27.0059 11.5C26.9175 12.382 26.1841 13.0702 25.293 13.0703L25.1172 13.0615C24.3069 12.9781 23.6626 12.3233 23.5801 11.5L23.5713 11.3213C23.5713 10.3551 24.3422 9.57129 25.293 9.57129L25.4688 9.58008ZM25.293 10.3232C24.7687 10.3232 24.3232 10.7587 24.3232 11.3213C24.3236 11.8835 24.7689 12.3184 25.293 12.3184C25.817 12.3183 26.2624 11.8835 26.2627 11.3213C26.2627 10.7588 25.8172 10.3233 25.293 10.3232Z" fill="#3F99D0"/>
</svg>
